<?xml version="1.0" encoding="utf-8"?>
<svg width="301" height="447" xmlns="http://www.w3.org/2000/svg" xmlns:xlink="http://www.w3.org/1999/xlink">
  <g>
    <title>background</title>
    <rect fill="none" id="canvas_background" height="449" width="303" y="-1" x="-1"/>
    <g display="none" overflow="visible" y="0" x="0" height="100%" width="100%" id="canvasGrid">
      <rect fill="url(#gridpattern)" stroke-width="0" y="0" x="0" height="100%" width="100%"/>
    </g>
  </g>
  <g transform="matrix(1, 0, 0, 1, 0.225282, -0.102461)">
    <title>Layer 1</title>
    <g id="svg_481">
      <g transform="matrix(2.241236653211672,0,0,2.241236653211672,0,0) " id="svg_478">
        <title transform="translate(0.02286941185593605,0) translate(0.6126875877380371,-0.25228312611579895) translate(6.439743995666504,19.779212951660156) translate(2.0182650089263916,1.3334965705871582) translate(1.441617727279663,-0.25228312611579895) translate(13.371005058288574,3.8923678398132324) translate(5.586268901824951,-6.811644554138184) translate(1.2253751754760742,8.541585922241211) translate(-0.3964449167251587,-6.018754482269287) translate(-0.03604044392704964,-0.07208088785409927) translate(4.072570323944092,4.649217128753662) translate(0.4461795389652252,0) translate(-86.11317443847656,0) translate(0,-56.218963623046875) translate(0,-0.003693448845297098) translate(-0.4461822509765625,0) translate(-0.4461822509765625,0) translate(0.4461822509765625,0) translate(-0.4461822509765625,0) translate(-0.4461754262447357,0) translate(-0.2709391713142395,0) translate(88.72265625,0) translate(0,57.22265625) ">background</title>
        <rect x="34.8041" y="24.788833" width="53" height="116" id="svg_476" fill="none"/>
        <g id="svg_475" display="none">
          <rect id="svg_479" width="512" height="512" x="35.8041" y="25.788833" stroke-width="0" fill="url(#gridpattern)"/>
        </g>
      </g>
      <g transform="matrix(2.241236653211672,0,0,2.241236653211672,0,0) " id="svg_480">
        <title transform="translate(0.02286941185593605,0) translate(0.6126875877380371,-0.25228312611579895) translate(6.439743995666504,19.779212951660156) translate(2.0182650089263916,1.3334965705871582) translate(1.441617727279663,-0.25228312611579895) translate(13.371005058288574,3.8923678398132324) translate(5.586268901824951,-6.811644554138184) translate(1.2253751754760742,8.541585922241211) translate(-0.3964449167251587,-6.018754482269287) translate(-0.03604044392704964,-0.07208088785409927) translate(4.072570323944092,4.649217128753662) translate(0.4461795389652252,0) translate(-86.11317443847656,0) translate(0,-56.218963623046875) translate(0,-0.003693448845297098) translate(-0.4461822509765625,0) translate(-0.4461822509765625,0) translate(0.4461822509765625,0) translate(-0.4461822509765625,0) translate(-0.4461754262447357,0) translate(-0.2709391713142395,0) translate(88.72265625,0) translate(0,57.22265625) ">Layer 1</title>
        <desc transform="translate(0.02286941185593605,0) translate(0.6126875877380371,-0.25228312611579895) translate(6.439743995666504,19.779212951660156) translate(2.0182650089263916,1.3334965705871582) translate(1.441617727279663,-0.25228312611579895) translate(13.371005058288574,3.8923678398132324) translate(5.586268901824951,-6.811644554138184) translate(1.2253751754760742,8.541585922241211) translate(-0.3964449167251587,-6.018754482269287) translate(-0.03604044392704964,-0.07208088785409927) translate(4.072570323944092,4.649217128753662) translate(0.4461795389652252,0) translate(-86.11317443847656,0) translate(0,-56.218963623046875) translate(0,-0.003693448845297098) translate(-0.4461822509765625,0) translate(-0.4461822509765625,0) translate(0.4461822509765625,0) translate(-0.4461822509765625,0) translate(-0.4461754262447357,0) translate(-0.2709391713142395,0) translate(88.72265625,0) translate(0,57.22265625) ">F9s.5test.dxf - scale = 1.407058</desc>
        <defs transform="translate(0.02286941185593605,0) translate(0.6126875877380371,-0.25228312611579895) translate(6.439743995666504,19.779212951660156) translate(2.0182650089263916,1.3334965705871582) translate(1.441617727279663,-0.25228312611579895) translate(13.371005058288574,3.8923678398132324) translate(5.586268901824951,-6.811644554138184) translate(1.2253751754760742,8.541585922241211) translate(-0.3964449167251587,-6.018754482269287) translate(-0.03604044392704964,-0.07208088785409927) translate(4.072570323944092,4.649217128753662) translate(0.4461795389652252,0) translate(-86.11317443847656,0) translate(0,-56.218963623046875) translate(0,-0.003693448845297098) translate(-0.4461822509765625,0) translate(-0.4461822509765625,0) translate(0.4461822509765625,0) translate(-0.4461822509765625,0) translate(-0.4461754262447357,0) translate(-0.2709391713142395,0) translate(88.72265625,0) translate(0,57.22265625) ">
          <linearGradient id="svg_464">
            <stop stop-color="#101010" id="svg_474" offset="0"/>
            <stop stop-color="#282828" offset="0.4999" id="svg_473"/>
            <stop stop-color="#101010" id="svg_472" offset="1"/>
          </linearGradient>
          <linearGradient id="svg_461">
            <stop stop-color="#080808" id="svg_471" offset="0"/>
            <stop stop-color="#141414" id="svg_470" offset="1"/>
          </linearGradient>
          <linearGradient id="svg_462">
            <stop stop-color="#181818" id="svg_469" offset="0"/>
            <stop stop-color="#3c3c3c" id="svg_468" offset="1"/>
          </linearGradient>
          <linearGradient id="svg_463">
            <stop stop-color="#f6f6f6" id="svg_467" offset="0"/>
            <stop stop-color="#ffffff" offset="0.5001" id="svg_466"/>
            <stop stop-color="#f6f6f6" id="svg_465" offset="1"/>
          </linearGradient>
          <linearGradient y2="0.5" x2="0.999999" y1="0.5" x1="0" id="svg_454" xlink:href="#svg_464"/>
          <linearGradient y2="0.500004" x2="1" y1="0.500004" x1="0" id="svg_447" xlink:href="#svg_464"/>
          <linearGradient y2="0.499999" x2="0.999998" y1="0.499999" x1="-0.000001" id="svg_456" xlink:href="#svg_464"/>
          <linearGradient y2="0.5" x2="0.999999" y1="0.5" x1="0" id="svg_458" xlink:href="#svg_463"/>
          <linearGradient y2="0.499999" x2="1.017315" y1="0.499999" x1="-0.017188" id="svg_257" xlink:href="#svg_462"/>
          <linearGradient y2="0.922587" x2="0.502924" y1="0.025315" x1="0.163743" id="svg_255" xlink:href="#svg_461"/>
          <linearGradient y2="0.499999" x2="1.017315" y1="0.499999" x1="-0.017188" id="svg_351" xlink:href="#svg_462"/>
          <linearGradient y2="0.922587" x2="0.502924" y1="0.025315" x1="0.163743" id="svg_349" xlink:href="#svg_461"/>
        </defs>
        <g id="svg_240">
          <g id="svg_459" transform="matrix(0.4375805637247119,0,0,0.4375805637247119,0,0) ">
            <title transform="translate(0.05226331576704979,0) translate(1.400170922279358,-0.576541006565094) translate(14.716704368591309,45.2013053894043) translate(4.612328052520752,3.047430992126465) translate(3.2945196628570557,-0.576541006565094) translate(30.556671142578125,8.89520263671875) translate(12.766263961791992,-15.566606521606445) translate(2.800341844558716,19.520030975341797) translate(-0.9059929847717285,-13.754620552062988) translate(-0.08236298710107803,-0.16472597420215607) translate(9.307018280029297,10.624825477600098) translate(1.019651174545288,0) translate(-196.7938690185547,0) translate(0,-128.47683715820312) translate(0,-0.008440614677965641) translate(-1.0196573734283447,0) translate(-1.0196573734283447,0) translate(1.0196573734283447,0) translate(-1.0196573734283447,0) translate(-1.0196417570114136,0) translate(-0.6191754937171936,0) translate(202.75730895996094,0) translate(0,130.77056884765625) ">background</title>
            <rect fill="none" id="svg_460" height="260" width="27" y="58.935051" x="126.008054"/>
          </g>
          <g id="svg_241" transform="matrix(0.4375805637247119,0,0,0.4375805637247119,0,0) ">
            <title transform="translate(0.05226331576704979,0) translate(1.400170922279358,-0.576541006565094) translate(14.716704368591309,45.2013053894043) translate(4.612328052520752,3.047430992126465) translate(3.2945196628570557,-0.576541006565094) translate(30.556671142578125,8.89520263671875) translate(12.766263961791992,-15.566606521606445) translate(2.800341844558716,19.520030975341797) translate(-0.9059929847717285,-13.754620552062988) translate(-0.08236298710107803,-0.16472597420215607) translate(9.307018280029297,10.624825477600098) translate(1.019651174545288,0) translate(-196.7938690185547,0) translate(0,-128.47683715820312) translate(0,-0.008440614677965641) translate(-1.0196573734283447,0) translate(-1.0196573734283447,0) translate(1.0196573734283447,0) translate(-1.0196573734283447,0) translate(-1.0196417570114136,0) translate(-0.6191754937171936,0) translate(202.75730895996094,0) translate(0,130.77056884765625) ">Layer 1</title>
            <g stroke="null" opacity="0.95" id="svg_242">
              <rect stroke="null" y="61.00633" fill="url(#svg_458)" stroke-width="0.997441" x="130.350204" height="244.442885" width="18.667433" id="svg_457"/>
              <rect stroke="null" fill="url(#svg_456)" stroke-width="0.348759" y="61.095697" x="130.350204" height="35.700001" width="18.667" id="svg_455"/>
              <rect stroke="null" fill="url(#svg_454)" stroke-width="0.219243" id="svg_453" width="18.667433" height="14.107783" x="130.350204" y="291.404227"/>
              <path stroke="null" fill="#f7f7f7" id="svg_452" d="m131.215075,310.303431c-0.0307,-0.055 -0.0788,-0.1942 -0.0788,-0.2287l0,-0.026l1.69504,0l1.69504,0l0.0125,0.058c0.0253,0.1175 0.025,0.1436 -0.002,0.1906l-0.0257,0.044l-1.63554,0l-1.63554,0l-0.0247,-0.044l0,0l-0.0003,0.0061z"/>
              <path stroke="null" fill="#f7f7f7" id="svg_451" d="m135.004705,310.283831c-0.0288,-0.057 -0.0788,-0.1998 -0.0788,-0.2249c0,-0.01 0.72677,-0.01 1.74687,-0.01l1.74687,0l-0.007,0.03c-0.0164,0.07 -0.0434,0.1471 -0.0713,0.2028l-0.0297,0.059l-1.63737,0l-1.63738,0l-0.0321,-0.064l-0.00009,0.0071z"/>
              <path stroke="null" fill="#f7f7f7" id="svg_450" d="m138.715565,310.415731c0,0 0.0116,-0.039 0.0258,-0.075c0.0233,-0.059 0.0497,-0.1582 0.0685,-0.256l0.007,-0.036l0.87673,0c0.82554,0 0.87706,0 0.8822,0.019c0.003,0.011 0.009,0.042 0.0131,0.069c0.004,0.027 0.0244,0.1013 0.045,0.1644c0.0206,0.063 0.0374,0.1165 0.0374,0.1188c0,0 -0.44001,0 -0.9778,0c-0.53779,0 -0.9778,0 -0.9778,-0.01l-0.00013,0.0058z"/>
              <path stroke="null" fill="#f7f7f7" id="svg_449" d="m141.048255,310.283831c-0.0288,-0.057 -0.0788,-0.1998 -0.0788,-0.2249c0,-0.01 0.72627,-0.01 1.74567,-0.01c1.30129,0 1.74567,0 1.74567,0.013c0,0.028 -0.046,0.1621 -0.075,0.2194l-0.0308,0.061l-1.63737,0l-1.63737,0l-0.0321,-0.064l0.0001,0.0055z"/>
              <path stroke="null" fill="#f7f7f7" id="svg_448" d="m144.858165,310.311431c-0.0337,-0.055 -0.0358,-0.075 -0.017,-0.1664c0.01,-0.046 0.0174,-0.087 0.0174,-0.09c0,0 0.76576,-0.01 1.70169,-0.01l1.70169,0l-0.007,0.03c-0.0143,0.061 -0.0507,0.1623 -0.0771,0.2145l-0.0271,0.053l-1.63516,0l-1.63516,0l-0.0222,-0.036l-0.00006,0.0049z"/>
              <path stroke="null" fill="url(#svg_447)" stroke-width="1.84199" d="m130.382505,305.416531l18.567,0.031l0.01,3.2741l-0.69771,1.7511l-17.16749,-0.053l-0.69728,-1.7526l-0.01452,-3.2506z" id="svg_446"/>
              <g stroke="null" id="svg_439">
                <g stroke="null" id="svg_443">
                  <path stroke="#ffffff" fill="#333333" stroke-width="0.4" stroke-linecap="round" stroke-linejoin="round" stroke-miterlimit="4" stroke-opacity="0" id="svg_445" d="m134.660685,313.121941c-0.19221,-0.4763 -0.44593,-1.0302 -0.69899,-1.5264l-0.0984,-0.1929l0.0407,-0.076c0.0711,-0.1322 0.23444,-0.4191 0.33302,-0.5844l0.0351,-0.058l0.19788,0c0.1088,0 0.32721,0 0.48525,0.0001l0.28734,0l0.038,0.063c0.0846,0.141 0.30202,0.523 0.35397,0.6218l0.0178,0.034l-0.0514,0.099c-0.27591,0.5303 -0.55213,1.1317 -0.77421,1.6857l-0.0373,0.093l-0.0324,0l-0.0324,0l-0.0638,-0.1582l0,0l-0.00016,-0.0007z"/>
                  <path stroke="#ffffff" fill="#333333" stroke-width="0.4" stroke-linecap="round" stroke-linejoin="round" stroke-miterlimit="4" stroke-opacity="0" id="svg_444" d="m144.467025,312.971141c-0.19221,-0.4763 -0.44593,-1.0302 -0.69899,-1.5264l-0.0984,-0.1929l0.0407,-0.076c0.0711,-0.1322 0.23444,-0.4191 0.33302,-0.5844l0.0351,-0.058l0.19788,0c0.1088,0 0.32721,0 0.48525,0.0001l0.28734,0l0.038,0.063c0.0846,0.141 0.30202,0.523 0.35397,0.6218l0.0178,0.034l-0.0514,0.099c-0.27591,0.5303 -0.55213,1.1317 -0.77421,1.6857l-0.0373,0.093l-0.0324,0l-0.0324,0l-0.0638,-0.1582l0,0l-0.00016,-0.0007z"/>
                </g>
                <path stroke="#ffffff" fill="#333333" stroke-width="0.4" stroke-linecap="round" stroke-linejoin="round" stroke-miterlimit="4" stroke-opacity="0" d="m138.588755,312.430041c0.0796,-0.1563 0.22845,-0.4341 0.33063,-0.6173l0.1858,-0.3328l-0.21886,-0.3876l-0.21885,-0.3877l-0.37607,0c-0.32082,0 -0.37606,-0.011 -0.37606,-0.041c0,-0.033 -0.031,-0.039 -0.16249,-0.033c-0.15376,0.011 -0.16533,0.013 -0.21603,0.1012l-0.0536,0.093l0.28159,0.541c0.15489,0.2976 0.36336,0.722 0.4633,0.9432c0.10002,0.2213 0.18937,0.4028 0.19875,0.4032c0.009,0.0006 0.0822,-0.1269 0.16187,-0.2832l0.00002,0.001z" id="svg_442"/>
                <path stroke="#ffffff" fill="#333333" stroke-width="0.4" stroke-linecap="round" stroke-linejoin="round" stroke-miterlimit="4" stroke-opacity="0" d="m140.857025,312.410341c-0.0796,-0.1563 -0.22845,-0.4341 -0.33063,-0.6173l-0.1858,-0.3328l0.21886,-0.3876l0.21885,-0.3877l0.37607,0c0.32082,0 0.37606,-0.011 0.37606,-0.041c0,-0.033 0.031,-0.039 0.16249,-0.033c0.15376,0.011 0.16533,0.013 0.21603,0.1012l0.0536,0.093l-0.28159,0.541c-0.15489,0.2976 -0.36336,0.722 -0.4633,0.9432c-0.10002,0.2213 -0.18937,0.4028 -0.19875,0.4032c-0.009,0.0006 -0.0822,-0.1269 -0.16187,-0.2832l-0.00002,0.001z" id="svg_441"/>
                <path stroke="#ffffff" fill="#333333" stroke-width="0.4" stroke-linecap="round" stroke-linejoin="round" stroke-miterlimit="4" stroke-opacity="0" d="m137.346525,316.673041c0,-0.013 0.0827,-0.3814 0.0944,-0.4213c0.17333,-2.2494 0.35317,-1.7824 1.06368,-3.1473c0,-0.069 0.48397,-1.0478 0.75256,-1.5214l0.13701,-0.2416l0,-0.3133l0,-0.3134l0.33569,0l0.33569,0l0,0.3176l0,0.3176l0.14387,0.2538c0.15052,0.2655 0.56612,1.0825 0.6625,1.3024l0.0561,0.1278c0.88203,2.4013 0.2186,0.2933 1.12629,3.3936c0.0231,0.1046 0.042,0.205 0.042,0.2233c0,0.033 -0.004,0.033 -2.375,0.033c-1.30625,0 -2.375,0 -2.375,-0.011l0.00021,0.0002z" id="svg_440"/>
              </g>
              <path stroke="#000000" fill="none" stroke-width="0.4" stroke-miterlimit="4" id="svg_438" d="m130.370805,61.141621l18.64629,0"/>
              <path stroke="#000000" fill="none" stroke-width="0.4" stroke-miterlimit="4" id="svg_437" d="m143.224875,310.541231l-1.01787,0"/>
              <path stroke="#000000" fill="none" stroke-width="0.4" stroke-miterlimit="4" id="svg_436" d="m132.317585,315.857631l4.91151,0"/>
              <path stroke="#000000" fill="none" stroke-width="0.4" stroke-miterlimit="4" id="svg_435" d="m134.264405,310.541231l1.01787,0"/>
              <path stroke="#000000" fill="none" stroke-width="0.4" stroke-miterlimit="4" id="svg_434" d="m135.722655,311.368131a17.17083,17.17083 0 0 0 -0.44038,-0.8269"/>
              <path stroke="#000000" fill="none" stroke-width="0.4" stroke-miterlimit="4" id="svg_433" d="m134.264405,310.541231a17.17083,17.17083 0 0 0 -0.44038,0.8269"/>
              <path stroke="#000000" fill="none" stroke-width="0.4" stroke-miterlimit="4" id="svg_432" d="m137.646335,310.541231l0.76414,0"/>
              <path stroke="#000000" fill="none" stroke-width="0.4" stroke-miterlimit="4" id="svg_431" d="m139.154735,311.469631a17.17083,17.17083 0 0 0 -0.44668,-0.8508"/>
              <path stroke="#000000" fill="none" stroke-width="0.4" stroke-miterlimit="4" id="svg_430" d="m137.646335,310.541231a17.17083,17.17083 0 0 0 -0.23272,0.4234"/>
              <path stroke="#000000" fill="none" stroke-width="0.4" stroke-miterlimit="4" id="svg_429" d="m147.070315,315.857631l-4.91151,0"/>
              <path stroke="#000000" fill="none" stroke-width="0.4" stroke-miterlimit="4" id="svg_428" d="m145.123495,310.541231l-1.01787,0"/>
              <path stroke="#000000" fill="none" stroke-width="0.4" stroke-miterlimit="4" id="svg_427" d="m144.105625,310.541231a17.17083,17.17083 0 0 0 -0.44038,0.8269"/>
              <path stroke="#000000" fill="none" stroke-width="0.4" stroke-miterlimit="4" id="svg_426" d="m145.563875,311.368131a17.17083,17.17083 0 0 0 -0.44038,-0.8269"/>
              <path stroke="#000000" fill="none" stroke-width="0.4" stroke-miterlimit="4" id="svg_425" d="m141.741575,310.541231l-0.76415,0"/>
              <path stroke="#000000" fill="none" stroke-width="0.4" stroke-miterlimit="4" id="svg_424" d="m138.410475,310.541231a1.03947,1.03947 0 0 0 0.21611,-0.6843"/>
              <path stroke="#000000" fill="none" stroke-width="0.4" stroke-miterlimit="4" id="svg_423" d="m134.933455,310.541231l3.47702,0"/>
              <path stroke="#000000" fill="none" stroke-width="0.4" stroke-miterlimit="4" id="svg_422" d="m140.761325,309.856931a1.03947,1.03947 0 0 0 0.2161,0.6843"/>
              <path stroke="#000000" fill="none" stroke-width="0.4" stroke-miterlimit="4" id="svg_421" d="m144.454455,310.541231a1.03947,1.03947 0 0 0 0.2161,-0.6843"/>
              <path stroke="#000000" fill="none" stroke-width="0.4" stroke-miterlimit="4" id="svg_420" d="m138.708055,310.618831l1.9718,0"/>
              <path stroke="#000000" fill="none" stroke-width="0.4" stroke-miterlimit="4" id="svg_419" d="m137.900855,310.541231a1.03947,1.03947 0 0 0 0.0546,0.078"/>
              <path stroke="#000000" fill="none" stroke-width="0.4" stroke-miterlimit="4" id="svg_418" d="m141.432465,310.618831a1.03947,1.03947 0 0 0 0.0546,-0.078"/>
              <path stroke="#000000" fill="none" stroke-width="0.4" stroke-miterlimit="4" id="svg_417" d="m137.955435,310.618831l3.47703,0"/>
              <path stroke="#000000" fill="none" stroke-width="0.4" stroke-miterlimit="4" id="svg_416" d="m140.729645,310.618831a17.17083,17.17083 0 0 0 -0.44668,0.8508"/>
              <path stroke="#000000" fill="none" stroke-width="0.4" stroke-miterlimit="4" id="svg_415" d="m140.729645,310.618831a17.17083,17.17083 0 0 0 -0.44668,0.8508"/>
              <path stroke="#000000" fill="none" stroke-width="0.4" stroke-miterlimit="4" id="svg_414" d="m141.999185,310.917931a17.17083,17.17083 0 0 0 -0.20782,-0.3767"/>
              <path stroke="#000000" fill="none" stroke-width="0.400938" stroke-miterlimit="4" id="svg_413" d="m149.017095,60.935051l0,194.58269"/>
              <path stroke="#000000" fill="none" stroke-width="0.4" stroke-miterlimit="4" id="svg_412" d="m137.440245,315.857631a17.17083,17.17083 0 0 0 -0.17715,0.8306l4.91151,0a17.17083,17.17083 0 0 0 -0.17715,-0.8306"/>
              <path stroke="#000000" fill="none" stroke-width="0.4" stroke-miterlimit="4" id="svg_411" d="m138.361005,313.080731a17.17083,17.17083 0 0 1 0.84891,-1.7089l0,-0.753"/>
              <path stroke="#000000" fill="none" stroke-width="0.4" stroke-miterlimit="4" id="svg_410" d="m140.227785,310.618831l0,0.753a17.17083,17.17083 0 0 1 0.82214,1.6468"/>
              <path stroke="#000000" fill="#333333" stroke-width="0.4" stroke-miterlimit="4" id="svg_409" d="m134.773345,313.683131a17.17083,17.17083 0 0 0 -1.38969,-3.1419l-1.01787,0a17.17083,17.17083 0 0 0 -1.94682,5.3164l4.91151,0"/>
              <path stroke="#000000" fill="none" stroke-width="0.4" stroke-miterlimit="4" id="svg_408" d="m144.614565,310.245131a1.03947,1.03947 0 0 0 0.16011,0.2961l3.47703,0a1.03947,1.03947 0 0 0 0.2161,-0.6843"/>
              <path stroke="#000000" fill="#333333" stroke-width="0.4" stroke-miterlimit="4" id="svg_407" d="m144.057435,315.857631l4.91151,0a17.17083,17.17083 0 0 0 -1.94682,-5.3164l-1.01787,0a17.17083,17.17083 0 0 0 -1.38969,3.1419"/>
              <path stroke="#000000" fill="#333333" stroke-width="0.4" stroke-miterlimit="4" id="svg_406" d="m136.163035,310.541231a17.17083,17.17083 0 0 0 -1.94682,5.3164l4.91151,0a17.17083,17.17083 0 0 0 -1.94682,-5.3164l-1.01787,0z"/>
              <path stroke="#000000" fill="none" stroke-width="0.400938" stroke-miterlimit="4" id="svg_405" d="m130.370805,255.517741l0,-194.58265"/>
              <path stroke="#000000" fill="none" stroke-width="0.4" stroke-miterlimit="4" id="svg_404" d="m149.017095,300.038431l0,8.3097a2.99842,2.99842 0 0 1 -0.48904,1.5088l-8.8341,0l-8.8341,0a2.99842,2.99842 0 0 1 -0.48905,-1.5088l0,-8.3097"/>
              <path stroke="#000000" fill="#333333" stroke-width="0.4" stroke-miterlimit="4" id="svg_403" d="m143.224875,310.541231a17.17083,17.17083 0 0 1 1.94682,5.3164l-4.91151,0a17.17083,17.17083 0 0 1 1.94682,-5.3164"/>
              <path stroke="#000000" fill="none" stroke-width="0.4" stroke-miterlimit="4" id="svg_402" d="m140.977425,310.541231l3.47703,0"/>
              <path stroke="#000000" fill="none" stroke-width="0.4" stroke-miterlimit="4" id="svg_401" d="m130.920095,309.856931a1.03947,1.03947 0 0 0 0.21611,0.6843l3.47703,0a1.03947,1.03947 0 0 0 0.16011,-0.2961"/>
              <path stroke="#000000" fill="none" stroke-width="0.4" stroke-miterlimit="4" id="svg_400" d="m134.717345,309.856931a1.03947,1.03947 0 0 0 0.21611,0.6843"/>
              <path stroke="#000000" fill="none" stroke-width="0.4" stroke-miterlimit="4" id="svg_399" d="m130.370805,96.834151l18.64629,0"/>
              <g stroke="null" id="svg_388">
                <path stroke="null" fill="#005288" d="m141.102975,183.427121l-3.86836,0l-0.14333,0.10719l0,3.44129l1.07086,0l0,-1.29047l0.10222,-0.0916l2.83874,0c0.71676,0 1.0528,-0.19285 1.0528,-0.68766l0,-0.79015c-0.00014,-0.49563 -0.33604,-0.68861 -1.05293,-0.68861m0,1.27226c0,0.23312 -0.15423,0.28155 -0.49025,0.28155l-2.33664,0l-0.11407,-0.11092l0,-0.73717l0.10221,-0.0935l2.3485,0c0.33602,0 0.49025,0.0479 0.49025,0.2821l0,0.37797l0,-0.00003z" id="svg_398"/>
                <polyline stroke="null" fill="#005288" points="138.8628254495561,191.25381469726562 139.78427320346236,192.60382080078125 139.733156260103,192.734619140625 137.695314463228,192.734619140625 137.17511182650924,193.37457275390625 140.208498056978,193.37457275390625 140.41879468783736,193.50250244140625 140.88974195346236,194.152099609375 142.11520582064986,194.152099609375 139.42904859408736,190.558837890625 " id="svg_397"/>
                <g stroke="null" transform="matrix(0.137944,0,0,0.137944,154.89541,962.71968) " id="svg_394">
                  <polyline stroke="null" fill="#005288" id="svg_396" points="-120.37526169419289,-5462.62451171875 -120.37526169419289,-5469.54833984375 -119.57618942856789,-5470.23876953125 -104.71458664536476,-5470.23876953125 -104.71458664536476,-5474.64794921875 -128.2690605223179,-5474.64794921875 -128.2690605223179,-5457.55859375 -93.52342453598976,-5457.55859375 -93.52342453598976,-5461.94677734375 -119.54127731919289,-5461.94677734375 "/>
                  <rect stroke="null" fill="#005288" id="svg_395" height="4.848" width="35.112999" y="-5483.286512" x="-128.269286"/>
                </g>
                <path stroke="null" fill="#005288" d="m138.274365,198.933621l3.90216,0c-0.0601,-0.49619 -0.36803,-0.63385 -1.14908,-0.63385l-2.7946,0c-0.88133,0 -1.16246,0.17201 -1.16246,0.83897l0,1.87121c0,0.66765 0.28113,0.83967 1.16246,0.83967l2.7946,0c0.79249,0 1.09597,-0.14885 1.11666,-0.66352l-3.86974,0l-0.11477,-0.108l0,-2.0722" id="svg_393"/>
                <path stroke="null" fill="#005288" d="m141.061155,176.633191l-2.83875,0l-0.0836,-0.092l0,-0.60723l0.0832,-0.0643l3.82685,0l0.0523,-0.12787c-0.13036,-0.33534 -0.46791,-0.49177 -1.09472,-0.49177l-2.65833,0c-0.88076,0 -1.16231,0.17201 -1.16231,0.83897l0,0.39232c0,0.66778 0.28155,0.83952 1.16231,0.83952l2.83241,0l0.089,0.0781l0,0.63482l-0.0725,0.099l-3.23989,0l0,-0.003l-0.84863,0c0,0 -0.0971,0.0487 -0.0934,0.0715c0.0724,0.46652 0.39025,0.59867 1.15114,0.59867l2.89503,0c0.88064,0 1.17059,-0.17201 1.17059,-0.83966l0,-0.48874c0,-0.66654 -0.28995,-0.83828 -1.17059,-0.83828" id="svg_392"/>
                <path stroke="null" fill="#005288" d="m138.328365,214.561581l-1.59339,0l-0.0865,0.16456l1.76954,1.28992c0.33521,-0.19409 0.69994,-0.3908 1.09666,-0.58489" id="svg_391"/>
                <path stroke="null" fill="#005288" d="m139.756085,216.991461l1.55532,1.13417l1.61285,0l0.0668,-0.15022l-2.32242,-1.69988c-0.30845,0.22637 -0.61316,0.46542 -0.9125,0.71593" id="svg_390"/>
                <path stroke="null" fill="#a7a9ac" d="m138.091245,218.123011l-1.44166,0l-0.1218,-0.19077c0.98023,-0.94644 5.45603,-4.50343 11.28185,-4.95595c0,0 -5.09615,0.56584 -9.71839,5.14672" id="svg_389"/>
              </g>
              <g stroke="null" id="svg_356">
                <g stroke="null" id="svg_369" transform="matrix(0.00124141,0,0,0.00132576,265.51549,803.69746) ">
                  <rect stroke="null" fill="#b22234" width="7410" height="3900" id="svg_387" x="-105074.056032" y="-516283.908546"/>
                  <path stroke="#ffffff" stroke-width="300" d="m-105074.056034,-515833.908544l7410,0m0,600l-7410,0m0,600l7410,0m0,600l-7410,0m0,600l7410,0m0,600l-7410,0" id="svg_386"/>
                  <rect stroke="null" fill="#3c3b6e" width="2964" height="2100" id="svg_385" x="-105074.056032" y="-516283.908546"/>
                  <g stroke="null" fill="#ffffff" id="svg_370">
                    <g stroke="null" id="svg_374">
                      <g stroke="null" id="svg_376">
                        <g stroke="null" id="svg_378">
                          <g stroke="null" id="svg_380">
                            <path stroke="null" id="svg_384" d="m-104827.056034,-516193.908544l70.53423,217.08204l-184.66101,-134.16408l228.25356,0l-184.66101,134.16408l70.53423,-217.08204z"/>
                            <use transform="matrix(1, 0, 0, 1, -105074.0625, -515863.90625)" stroke="null" id="svg_383" width="100%" height="100%" xlink:href="#s"/>
                            <use transform="matrix(1, 0, 0, 1, -105074.0625, -515443.90625)" stroke="null" id="svg_382" width="100%" height="100%" xlink:href="#s"/>
                            <use transform="matrix(1, 0, 0, 1, -105074.0625, -515023.90625)" stroke="null" id="svg_381" width="100%" height="100%" xlink:href="#s"/>
                          </g>
                          <use transform="matrix(1, 0, 0, 1, -105074.0625, -514603.90625)" stroke="null" id="svg_379" width="100%" height="100%" xlink:href="#s"/>
                        </g>
                        <use transform="matrix(1, 0, 0, 1, -104827.0625, -516073.90625)" stroke="null" id="svg_377" width="100%" height="100%" xlink:href="#s4"/>
                      </g>
                      <use transform="matrix(1, 0, 0, 1, -104580.0625, -516283.90625)" stroke="null" id="svg_375" width="100%" height="100%" xlink:href="#s9"/>
                    </g>
                    <use transform="matrix(1, 0, 0, 1, -104086.0625, -516283.90625)" stroke="null" id="svg_373" width="100%" height="100%" xlink:href="#s18"/>
                    <use transform="matrix(1, 0, 0, 1, -103098.0625, -516283.90625)" stroke="null" id="svg_372" width="100%" height="100%" xlink:href="#s9"/>
                    <use transform="matrix(1, 0, 0, 1, -102604.0625, -516283.90625)" stroke="null" id="svg_371" width="100%" height="100%" xlink:href="#s5"/>
                  </g>
                </g>
                <g stroke="null" display="inline" id="svg_357" transform="matrix(0.83861708,0,0,0.83861708,-387.4661,146.6637) ">
                  <g stroke="null" display="inline" fill="#a80126" id="svg_366" transform="matrix(0.03300322,0,0,0.02935723,823.88193,760.14368) ">
                    <path stroke="null" fill="#a80126" fill-rule="evenodd" stroke-width="2.941541" stroke-linecap="round" stroke-linejoin="round" stroke-miterlimit="4" stroke-dashoffset="0" id="svg_368" d="m-6013.387327,-27321.555042c11.1133,-6.6876 22.2943,-13.20693 34.0114,-18.38464c-132.6286,-78.44738 -140.0615,-137.41999 -167.3002,-199.47327c20.975,71.86273 38.4963,143.61399 133.2888,217.85791z"/>
                    <path stroke="null" fill="#a80126" fill-rule="evenodd" stroke-width="0.588308" stroke-linecap="round" stroke-linejoin="round" stroke-miterlimit="4" stroke-dashoffset="0" id="svg_367" d="m-6082.478027,-27439.310252c50.5297,47.50445 94.389,81.3501 126.7489,91.64934c31.9861,-19.18623 137.8211,-29.61473 135.5239,-2.54979c-23.1658,-12.83454 -36.93,-6.74784 -50.0493,-2.00169c6.6053,-0.10298 24.0357,-2.2755 29.2796,-0.20296c-2.1318,2.89786 -4.4484,4.14017 -6.8385,5.76748c8.5624,2.10321 16.6491,4.84327 23.3833,9.38558c4.3636,-0.46771 7.2164,-0.34714 8.5499,1.17391c-4.4528,1.31778 -9.8198,7.73867 -12.4497,12.09421c29.4119,0.9413 60.7314,0.61184 64.0243,35.48058c9.2723,-30.88118 -7.307,-46.9358 -39.6496,-53.94965c-4.2387,-10.57482 -11.0706,-19.59771 -17.7011,-29.82074c-88.3877,-5.55362 -176.6731,-12.29711 -260.8217,-67.02627z"/>
                  </g>
                  <path stroke="null" fill="#000000" fill-rule="evenodd" stroke-width="0.02" stroke-linecap="round" stroke-linejoin="round" stroke-miterlimit="4" stroke-dashoffset="0" d="m620.851805,-38.343624l0,-1.76612l1.18225,0c-0.0468,0.061 -0.0864,0.12474 -0.18639,0.1644l-0.74024,0l0,0.46501l0.66035,0c-0.0374,0.0561 -0.079,0.10815 -0.14911,0.13152l-0.51124,0l0,0.62942c-0.0537,0.14329 -0.12508,0.27641 -0.25562,0.37577z" id="svg_365"/>
                  <path stroke="null" fill="#000000" fill-rule="evenodd" stroke-width="0.02" stroke-linecap="round" stroke-linejoin="round" stroke-miterlimit="4" stroke-dashoffset="0" d="m624.041735,-39.926564l0,1.29171l0.3355,0l0,-1.21654c-0.45444,-0.41336 -0.90887,-0.41334 -1.36331,0l0,1.21654l0.30355,0l0,-0.71396l0.23964,0c0.0558,-0.0289 0.0946,-0.0634 0.11716,-0.10333l-0.35148,0l0,-0.46972c0.26966,-0.18552 0.48464,-0.18521 0.71894,-0.005l0,0.0003z" id="svg_364"/>
                  <path stroke="null" fill="#000000" fill-rule="evenodd" stroke-width="0.02" stroke-linecap="round" stroke-linejoin="round" stroke-miterlimit="4" stroke-dashoffset="0" d="m627.545185,-38.592574l-1.36264,0l0,-1.48898l0.34083,0l0,1.36685l1.19821,0c-0.05,0.0459 -0.0757,0.10658 -0.1764,0.12213z" id="svg_363"/>
                  <path stroke="null" fill="#000000" fill-rule="evenodd" stroke-width="0.02" stroke-linecap="round" stroke-linejoin="round" stroke-miterlimit="4" stroke-dashoffset="0" d="m629.581195,-40.109244l0,0.29228c-0.54701,0.74211 0.38554,1.63269 1.4347,0.9798l0.0791,-0.0164c-0.65052,0.73444 -3.03363,0.13829 -1.51374,-1.25563l-0.00006,-0.00005z" id="svg_362"/>
                  <path stroke="null" fill="#000000" fill-rule="evenodd" stroke-width="0.02" stroke-linecap="round" stroke-linejoin="round" stroke-miterlimit="4" stroke-dashoffset="0" d="m628.861215,-40.070924l0,0.53901c0.52314,-0.9429 1.24853,-1.41209 3.46981,-0.78644c-2.13059,-0.83689 -2.92137,-0.39839 -3.46981,0.24743z" id="svg_361"/>
                  <path stroke="null" fill="#000000" fill-rule="evenodd" stroke-width="0.02" stroke-linecap="round" stroke-linejoin="round" stroke-miterlimit="4" stroke-dashoffset="0" d="m632.999485,-40.226064c-0.44504,0.007 -0.89118,0.30411 -0.88867,0.86719c0.005,1.12616 1.77681,1.18357 1.77734,0c0.00026,-0.59178 -0.44364,-0.87436 -0.88867,-0.86719zm-0.004,0.11719c0.26392,-0.003 0.52905,0.24468 0.53125,0.75c0.005,1.01064 -1.04599,0.98776 -1.05273,0c-0.004,-0.49388 0.25756,-0.74714 0.52148,-0.75z" id="svg_360"/>
                  <path stroke="null" fill="#000000" fill-rule="evenodd" stroke-width="0.02" stroke-linecap="round" stroke-linejoin="round" stroke-miterlimit="4" stroke-dashoffset="0" d="m635.545955,-39.923244l0,1.34182l-0.26472,0l0,-1.40825l0.26586,-0.12881l-0.002,0.061c0.40971,-0.009 0.69591,0.17823 0.77056,0.28164l0,1.20772l-0.25804,0l0,-1.18624c-0.0949,-0.15792 -0.20101,-0.19757 -0.51212,-0.20108l0.00046,0.0322z" id="svg_359"/>
                  <path stroke="null" fill="#000000" fill-rule="evenodd" stroke-width="0.02" stroke-linecap="round" stroke-linejoin="round" stroke-miterlimit="4" stroke-dashoffset="0" d="m628.604955,-37.544414c-2.7397,0.0125 -2.03035,2.20961 -0.51563,2.16601c0.70614,-0.0203 0.83974,-0.094 1.3125,-0.59961c-0.29549,1.48111 -1.30134,1.4817 -2.51172,1.59961c-0.15206,0.0998 -0.18293,0.12076 -0.28711,0.28125c2.05521,-0.0414 3.77902,-0.40709 3.72852,-2.00195c-0.0353,-1.11572 -0.78209,-1.44932 -1.72656,-1.44531zm-0.041,0.26562a0.90375,0.71077 0 0 1 0.9043,0.71094a0.90375,0.71077 0 0 1 -0.9043,0.70898a0.90375,0.71077 0 0 1 -0.90234,-0.70898a0.90375,0.71077 0 0 1 0.90234,-0.71094z" id="svg_358"/>
                </g>
              </g>
              <path stroke="#000000" fill="#101010" fill-rule="evenodd" stroke-width="0.4" stroke-linecap="round" stroke-linejoin="round" stroke-miterlimit="4" stroke-dashoffset="0" d="m149.007125,97.182611l1.28163,2.20971l0,21.30159l-0.53033,3.44715l0,176.40464l-0.9706,3.68753l0,-33.50003l-0.5,-1.625l0,-2.875l0.47099,-1.75777l0,-15.92973l-0.55136,-2.05771l0,-4.12979l0.45537,-2.125l0,-110.06251l-0.4375,-2.4375l0,-30.5l0.7818,-0.05058z" id="svg_355"/>
              <path stroke="#000000" fill="none" stroke-width="0.4" stroke-miterlimit="4" id="svg_354" d="m130.370805,305.468731l18.64629,0"/>
              <path stroke="#000000" fill="none" stroke-width="0.4" stroke-miterlimit="4" d="m130.370805,291.468731l18.64629,0" id="svg_353"/>
              <g stroke="null" id="svg_337" transform="matrix(0.173648, -0.984808, -0.984808, -0.173648, 153.466385, 1488.622559)">
                <rect stroke="null" fill="#101010" y="210.676832" x="1162.000051" height="0.453125" width="0.476563" id="svg_352"/>
                <path stroke="null" fill="url(#svg_351)" stroke-width="0.4" stroke-miterlimit="4" d="m1164.922112,156.059094l-0.0586,0.004l-0.0605,0.01l-0.0606,0.0156l-0.0605,0.0215l-0.0605,0.0293l-0.0625,0.0332l-0.0625,0.041l-0.0625,0.0469l-0.0645,0.0527l-0.0645,0.0606l-0.0664,0.0664l-0.0664,0.0762l-0.0684,0.084l-0.0703,0.0918l-0.0684,0.0996l-0.0723,0.10937l-0.0723,0.11914l-0.0742,0.12696l-0.0742,0.13672l-0.0762,0.14453l-0.0762,0.15234l-0.0762,0.15821l-0.0762,0.1621l-0.0742,0.16602l-0.0742,0.16992l-0.0723,0.16992l-0.0703,0.17383l-0.0703,0.17188l-0.0664,0.17187l-0.0625,0.16992l-0.0605,0.16797l-0.0566,0.16797l-0.0547,0.16602l-0.0508,0.16601l-0.0449,0.16602l-0.043,0.16601l-0.0391,0.16797l-0.0352,0.16797l-0.0254,0.14649l-0.0137,0.0351l-0.0293,0.0762l-0.0273,0.0762l-0.0527,0.15039l-0.0488,0.14453l-0.0469,0.14453l-0.041,0.14062l-0.041,0.13868l-0.0391,0.13671l-0.0371,0.13672l-0.0352,0.13477l-0.0351,0.13672l-0.0332,0.13867l-0.0312,0.14062l-0.0312,0.14454l-0.0312,0.14843l-0.0137,0.0762l-0.0156,0.0762l-0.0156,0.0801l-0.0137,0.0801l-0.0156,0.084l-0.0137,0.084l-0.0156,0.0859l-0.0137,0.0879l-0.0137,0.0918l-0.0156,0.0918l-0.006,0.0488l-0.002,0.0117l-0.002,0.006l0,0.002l0,0.002l0,0.002l0,0.004l-0.002,0.0293l-0.0137,0.44922l-0.0605,1.80469l-0.24219,7.21289l-0.48047,14.42578l-0.48242,14.42578l-0.24023,7.21289l-0.004,0.1113l-0.002,0.057l0,0.01l0,0l0.002,0.012l0.004,0.023l0.01,0.047l0.0176,0.092l0.0215,0.094l0.0215,0.094l0.0234,0.094l0.0273,0.094l0.0273,0.094l0.0332,0.094l0.0332,0.092l0.0391,0.092l0.043,0.092l0.0449,0.092l0.0508,0.092l0.0547,0.09l0.0605,0.088l0.0645,0.088l0.0703,0.088l0.0371,0.043l0.0391,0.043l0.041,0.041l0.041,0.043l0.043,0.041l0.0449,0.043l0.0469,0.041l0.0488,0.041l0.0508,0.039l0.0508,0.041l0.0527,0.039l0.0566,0.039l0.0566,0.039l0.0586,0.039l0.0605,0.037l0.0645,0.039l0.0645,0.037l0.0332,0.016l0.0156,0l0.0176,0l0.0156,0l0.008,0l0.008,0l0.008,-0.01l0.01,-0.01l0.008,-0.012l0.008,-0.012l0.008,-0.014l0.006,-0.018l0.002,0l0.002,-0.01l0.002,-0.016l0.004,-0.031l0.0137,-0.1269l0.0312,-0.2578l0.0293,-0.2598l0.0293,-0.2617l0.0293,-0.2637l0.0293,-0.2676l0.0293,-0.2676l0.0293,-0.2695l0.0293,-0.2734l0.0293,-0.2734l0.0293,-0.2754l0.0586,-0.5528l0.0586,-0.5586l0.0586,-0.5605l0.0586,-0.56252l0.1211,-1.12695l0.0586,-0.56055l0.0625,-0.55859l0.0605,-0.55274l0.0312,-0.27539l0.0312,-0.27539l0.0312,-0.27148l0.0332,-0.27149l0.0312,-0.26758l0.0312,-0.26757l0.0332,-0.26368l0.0332,-0.26171l0.0332,-0.25977l0.0332,-0.25781l0.0332,-0.25586l0.0332,-0.25l0.0352,-0.25l0.0332,-0.24414l0.0352,-0.24219l0.0351,-0.24023l0.0371,-0.23438l0.0352,-0.23242l0.0352,-0.22656l0.0371,-0.22461l0.0371,-0.21875l0.0371,-0.21485l0.0469,-0.14258l0.0781,-0.15429l0.10938,-0.16211l0.13476,-0.16016l0.16016,-0.15234l0.18164,-0.13672l0.19726,-0.11328l0.21485,-0.084l0.22461,-0.0449l0.23437,0l0.24024,0.0527l0.24218,0.11133l0.4043,1.05664l0.42383,1.16601l0.42187,1.16602l0.42383,1.16601l0.42188,1.16602l0.42383,1.16601l0.42187,1.16602l0.42383,1.16601l0.42187,1.16802l0.42383,1.166l0.42188,1.166l0.42383,1.166l0.10742,0.2832l0.0195,0.035l0.0215,0.033l0.0234,0.029l0.0254,0.029l0.0273,0.025l0.0274,0.023l0.0273,0.022l0.0312,0.019l0.0293,0.016l0.0312,0.016l0.0312,0.014l0.0332,0.01l0.0332,0.01l0.0313,0.01l0.0332,0l0.0312,0l0.0332,0l0.0293,0l0.0312,0l0.0273,0l0.0274,0l0.0273,0l0.0234,0l0.0391,0l0.0527,-0.025l0.0527,-0.049l0.0508,-0.074l0.0488,-0.094l0.0469,-0.1133l0.043,-0.1269l0.041,-0.1407l0.0371,-0.1503l0.0332,-0.1582l0.0293,-0.1622l0.0234,-0.164l-0.1914,-1.8223l-0.44922,-3.81639l-0.44922,-3.81445l-0.44922,-3.81641l-0.44922,-3.81445l-0.44726,-3.81641l-0.44922,-3.81445l-0.44922,-3.81641l-0.44922,-3.81445l-0.44727,-3.81641l-0.44921,-3.81445l-0.44922,-3.81641l-0.29297,-2.58398l-0.004,-0.25l-0.002,-0.25196l-0.002,-0.25l-0.002,-0.25l-0.002,-0.25195l-0.002,-0.25l-0.002,-0.25195l-0.002,-0.25l-0.002,-0.25l-0.002,-0.25196l-0.002,-0.25l-0.01,-0.31445l-0.0352,-0.48828l-0.0371,-0.44141l-0.0371,-0.40039l-0.0371,-0.35937l-0.041,-0.32422l-0.0391,-0.28906l-0.041,-0.26172l-0.041,-0.23242l-0.043,-0.20899l-0.043,-0.1875l-0.0449,-0.17187l-0.0449,-0.15625l-0.0449,-0.14453l-0.0469,-0.13282l-0.0449,-0.12109l-0.0488,-0.11133l-0.0469,-0.10156l-0.0488,-0.0918l-0.0508,-0.084l-0.0488,-0.0742l-0.0527,-0.0664l-0.0508,-0.0586l-0.0527,-0.0527l-0.0527,-0.0449l-0.0547,-0.0391l-0.0547,-0.0312l-0.0547,-0.0273l-0.0566,-0.0195l-0.0566,-0.0137l-0.0566,-0.008l-0.05904,-0.00039z" id="svg_350"/>
                <path stroke="null" fill="url(#svg_349)" fill-rule="evenodd" stroke-width="0.4" stroke-linecap="round" stroke-linejoin="round" stroke-miterlimit="4" stroke-dashoffset="0" d="m1161.847942,211.500834l0.6875,-6.28125l0.17188,-1.96875l0.60937,-4.625l0.0937,-0.64063l0.32818,-0.53125l0.42187,-0.375l0.42188,-0.1875l0.4375,-0.0469l0.29687,0.0469l0.26563,0.20313l5.09375,14.12495l0.29687,0.2657l0.34375,0.062l-0.0156,-0.2339l-7.68752,-20.67188l-0.375,-0.42187l-0.40625,-0.26563l-0.42188,0.10938l-0.17187,0.51562l-1.60938,19.90628l0.39063,0.5l0.39062,0.3593l0.4375,0.1563z" id="svg_348"/>
                <path stroke="#000000" fill="none" stroke-width="0.4" stroke-miterlimit="4" id="svg_347" d="m1166.401952,160.912564l-1.23406,-1.30732"/>
                <path stroke="#000000" fill="none" stroke-width="0.4" stroke-miterlimit="4" id="svg_346" d="m1165.167892,159.605244l-2.43028,0.008"/>
                <path stroke="#000000" fill="none" stroke-width="0.4" stroke-miterlimit="4" id="svg_345" d="m1162.648392,189.970134l0.17448,-24.11936"/>
                <path stroke="#000000" fill="none" stroke-width="0.4" stroke-miterlimit="4" id="svg_344" d="m1162.822872,165.850774l2.16051,-2.92528"/>
                <path stroke="#000000" fill="none" stroke-width="0.4" stroke-miterlimit="4" id="svg_343" d="m1162.822872,165.850774l-1.03222,-2.67419"/>
                <path stroke="#000000" fill="none" stroke-width="0.4" stroke-linecap="round" stroke-miterlimit="4" id="svg_342" d="m1164.983382,162.925494l0.18451,-3.32025"/>
                <path stroke="#000000" fill="none" stroke-width="0.4" stroke-miterlimit="4" id="svg_341" d="m1161.957762,210.599934l0.61379,0"/>
                <path stroke="#000000" fill="none" stroke-width="0.4" stroke-miterlimit="4" id="svg_340" d="m1161.882682,211.255934l0.68887,0"/>
                <path stroke="#000000" fill="none" stroke-width="0.4" stroke-miterlimit="4" id="svg_339" d="m1160.639372,210.503534l0.11841,-1.5018l0.11841,-1.5018l0.11841,-1.5018l0.1184,-1.5018l0.11841,-1.5018l0.11841,-1.5018l0.11841,-1.5018l0.11841,-1.5018l0.11841,-1.5018l0.1184,-1.5018l0.11841,-1.5018l0.11841,-1.5018l0.11841,-1.5018l0.0498,-0.4765l0.033,-0.1192l0.0392,-0.1024l0.0448,-0.086l0.0498,-0.071l0.054,-0.057l0.0577,-0.043l0.0606,-0.031l0.0629,-0.019l0.0645,-0.01l0.0655,0l0.0657,0.01l0.0654,0.018l0.0644,0.025l0.063,0.032l0.0615,0.038l0.06,0.043l0.0584,0.047l0.0568,0.052l0.0551,0.055l0.0533,0.058l0.0514,0.06l0.0495,0.062l0.0476,0.063l0.0455,0.064l0.0435,0.064l0.17689,0.44l0.58285,1.5693l0.58284,1.5693l0.58285,1.5693l0.58285,1.5694l0.58284,1.5693l0.58285,1.5693l0.58285,1.5693l0.58284,1.5693l0.58285,1.5693l0.58284,1.5694l0.58285,1.5693l0.58285,1.5693l0.58284,1.5693"/>
                <path stroke="#000000" fill="none" stroke-width="0.4" stroke-miterlimit="4" id="svg_338" d="m1164.922112,156.059094l-0.0586,0.004l-0.0605,0.01l-0.0606,0.0156l-0.0605,0.0215l-0.0605,0.0293l-0.0625,0.0332l-0.0625,0.041l-0.0625,0.0469l-0.0645,0.0527l-0.0645,0.0606l-0.0664,0.0664l-0.0664,0.0762l-0.0684,0.084l-0.0703,0.0918l-0.0684,0.0996l-0.0723,0.10937l-0.0723,0.11914l-0.0742,0.12696l-0.0742,0.13672l-0.0762,0.14453l-0.0762,0.15234l-0.0762,0.15821l-0.0762,0.1621l-0.0742,0.16602l-0.0742,0.16992l-0.0723,0.16992l-0.0703,0.17383l-0.0703,0.17188l-0.0664,0.17187l-0.0625,0.16992l-0.0605,0.16797l-0.0566,0.16797l-0.0547,0.16602l-0.0508,0.16601l-0.0449,0.16602l-0.043,0.16601l-0.0391,0.16797l-0.0352,0.16797l-0.0254,0.14649l-0.0137,0.0351l-0.0293,0.0762l-0.0273,0.0762l-0.0527,0.15039l-0.0488,0.14453l-0.0469,0.14453l-0.041,0.14062l-0.041,0.13868l-0.0391,0.13671l-0.0371,0.13672l-0.0352,0.13477l-0.0351,0.13672l-0.0332,0.13867l-0.0312,0.14062l-0.0312,0.14454l-0.0312,0.14843l-0.0137,0.0762l-0.0156,0.0762l-0.0156,0.0801l-0.0137,0.0801l-0.0156,0.084l-0.0137,0.084l-0.0156,0.0859l-0.0137,0.0879l-0.0137,0.0918l-0.0156,0.0918l-0.006,0.0488l-0.002,0.0117l-0.002,0.006l0,0.002l0,0.002l0,0.002l0,0.004l-0.002,0.0293l-0.0137,0.44922l-0.0605,1.80469l-0.24219,7.21289l-0.48047,14.42578l-0.48242,14.42578l-0.24023,7.21289l-0.004,0.1113l-0.002,0.057l0,0.01l0,0l0.002,0.012l0.004,0.023l0.01,0.047l0.0176,0.092l0.0215,0.094l0.0215,0.094l0.0234,0.094l0.0273,0.094l0.0273,0.094l0.0332,0.094l0.0332,0.092l0.0391,0.092l0.043,0.092l0.0449,0.092l0.0508,0.092l0.0547,0.09l0.0605,0.088l0.0645,0.088l0.0703,0.088l0.0371,0.043l0.0391,0.043l0.041,0.041l0.041,0.043l0.043,0.041l0.0449,0.043l0.0469,0.041l0.0488,0.041l0.0508,0.039l0.0508,0.041l0.0527,0.039l0.0566,0.039l0.0566,0.039l0.0586,0.039l0.0605,0.037l0.0645,0.039l0.0645,0.037l0.0332,0.016l0.0156,0l0.0176,0l0.0156,0l0.008,0l0.008,0l0.008,-0.01l0.01,-0.01l0.008,-0.012l0.008,-0.012l0.008,-0.014l0.006,-0.018l0.002,0l0.002,-0.01l0.002,-0.016l0.004,-0.031l0.0137,-0.1269l0.0312,-0.2578l0.0293,-0.2598l0.0293,-0.2617l0.0293,-0.2637l0.0293,-0.2676l0.0293,-0.2676l0.0293,-0.2695l0.0293,-0.2734l0.0293,-0.2734l0.0293,-0.2754l0.0586,-0.5528l0.0586,-0.5586l0.0586,-0.5605l0.0586,-0.56252l0.1211,-1.12695l0.0586,-0.56055l0.0625,-0.55859l0.0605,-0.55274l0.0312,-0.27539l0.0312,-0.27539l0.0312,-0.27148l0.0332,-0.27149l0.0312,-0.26758l0.0312,-0.26757l0.0332,-0.26368l0.0332,-0.26171l0.0332,-0.25977l0.0332,-0.25781l0.0332,-0.25586l0.0332,-0.25l0.0352,-0.25l0.0332,-0.24414l0.0352,-0.24219l0.0351,-0.24023l0.0371,-0.23438l0.0352,-0.23242l0.0352,-0.22656l0.0371,-0.22461l0.0371,-0.21875l0.0371,-0.21485l0.0469,-0.14258l0.0781,-0.15429l0.10938,-0.16211l0.13476,-0.16016l0.16016,-0.15234l0.18164,-0.13672l0.19726,-0.11328l0.21485,-0.084l0.22461,-0.0449l0.23437,0l0.24024,0.0527l0.24218,0.11133l0.4043,1.05664l0.42383,1.16601l0.42187,1.16602l0.42383,1.16601l0.42188,1.16602l0.42383,1.16601l0.42187,1.16602l0.42383,1.16601l0.42187,1.16802l0.42383,1.166l0.42188,1.166l0.42383,1.166l0.10742,0.2832l0.0195,0.035l0.0215,0.033l0.0234,0.029l0.0254,0.029l0.0273,0.025l0.0274,0.023l0.0273,0.022l0.0312,0.019l0.0293,0.016l0.0312,0.016l0.0312,0.014l0.0332,0.01l0.0332,0.01l0.0313,0.01l0.0332,0l0.0312,0l0.0332,0l0.0293,0l0.0312,0l0.0273,0l0.0274,0l0.0273,0l0.0234,0l0.0391,0l0.0527,-0.025l0.0527,-0.049l0.0508,-0.074l0.0488,-0.094l0.0469,-0.1133l0.043,-0.1269l0.041,-0.1407l0.0371,-0.1503l0.0332,-0.1582l0.0293,-0.1622l0.0234,-0.164l-0.1914,-1.8223l-0.44922,-3.81639l-0.44922,-3.81445l-0.44922,-3.81641l-0.44922,-3.81445l-0.44726,-3.81641l-0.44922,-3.81445l-0.44922,-3.81641l-0.44922,-3.81445l-0.44727,-3.81641l-0.44921,-3.81445l-0.44922,-3.81641l-0.29297,-2.58398l-0.004,-0.25l-0.002,-0.25196l-0.002,-0.25l-0.002,-0.25l-0.002,-0.25195l-0.002,-0.25l-0.002,-0.25195l-0.002,-0.25l-0.002,-0.25l-0.002,-0.25196l-0.002,-0.25l-0.01,-0.31445l-0.0352,-0.48828l-0.0371,-0.44141l-0.0371,-0.40039l-0.0371,-0.35937l-0.041,-0.32422l-0.0391,-0.28906l-0.041,-0.26172l-0.041,-0.23242l-0.043,-0.20899l-0.043,-0.1875l-0.0449,-0.17187l-0.0449,-0.15625l-0.0449,-0.14453l-0.0469,-0.13282l-0.0449,-0.12109l-0.0488,-0.11133l-0.0469,-0.10156l-0.0488,-0.0918l-0.0508,-0.084l-0.0488,-0.0742l-0.0527,-0.0664l-0.0508,-0.0586l-0.0527,-0.0527l-0.0527,-0.0449l-0.0547,-0.0391l-0.0547,-0.0312l-0.0547,-0.0273l-0.0566,-0.0195l-0.0566,-0.0137l-0.0566,-0.008l-0.05904,-0.00039z"/>
              </g>
              <g stroke="null" id="svg_260">
                <g transform="matrix(0, -1, 1, 0, 58.811005, 243.672211)" stroke="null" id="svg_299">
                  <path stroke="null" fill="#1a1a1a" fill-rule="evenodd" stroke-width="0.09577" stroke-linecap="round" stroke-linejoin="round" stroke-miterlimit="4" stroke-dashoffset="0" d="m152.190719,87.434196l0.81804,0.38248l0.22267,0.89604l-0.5769,0.74116l-1.07285,0.0553l-0.6096,-0.67655l0.1535,-0.83741l0.43543,-0.50624l0.62971,-0.05478z" id="svg_336"/>
                  <path stroke="null" fill="#474747" fill-rule="evenodd" stroke-width="0.09577" stroke-linecap="round" stroke-linejoin="round" stroke-miterlimit="4" stroke-dashoffset="0" d="m150.428639,89.597686l-0.5263,-0.0664l-1.29552,1.59296l-0.0202,0.92923l-0.16193,0.77435l0.20242,0.84073l-0.18218,0.92922l0.12145,0.77435l-0.14169,0.68585l0.20242,0.68586l-0.18218,0.81861l0.081,0.5531l-0.0607,0.8186l0.64775,0.19913l-0.0203,-7.92053l1.33596,-1.61506z" id="svg_335"/>
                  <path stroke="#000000" fill="none" fill-rule="evenodd" stroke-width="0.383082" stroke-linecap="round" stroke-linejoin="round" stroke-miterlimit="4" stroke-dashoffset="0" d="m149.133129,91.223826l0,7.86521l5.78932,0l-5.7882,-7.86588l1.30189,-1.6263l0.38211,-0.99754" id="svg_333"/>
                  <path stroke="#000000" fill="none" fill-rule="evenodd" stroke-width="0.383082" stroke-linecap="round" stroke-linejoin="round" stroke-miterlimit="4" stroke-dashoffset="0" d="m149.138189,93.043566l4.52923,6.02335" id="svg_332"/>
                  <path stroke="#000000" fill="none" fill-rule="evenodd" stroke-width="0.383082" stroke-linecap="round" stroke-linejoin="round" stroke-miterlimit="4" stroke-dashoffset="0" d="m152.473119,99.066916l-3.34,-4.40274" id="svg_331"/>
                  <path stroke="#000000" fill="none" fill-rule="evenodd" stroke-width="0.383082" stroke-linecap="round" stroke-linejoin="round" stroke-miterlimit="4" stroke-dashoffset="0" d="m151.380029,99.044796l-2.24691,-2.74343" id="svg_330"/>
                  <path stroke="#000000" fill="none" fill-rule="evenodd" stroke-width="0.383082" stroke-linecap="round" stroke-linejoin="round" stroke-miterlimit="4" stroke-dashoffset="0" d="m150.185729,99.089036l-1.05261,-1.32746" id="svg_329"/>
                  <path stroke="#000000" fill="none" fill-rule="evenodd" stroke-width="0.383082" stroke-linecap="round" stroke-linejoin="round" stroke-miterlimit="4" stroke-dashoffset="0" d="m154.922429,99.072446l0,-7.8984l-1.14128,-1.72603" id="svg_328"/>
                  <path stroke="#000000" fill="none" fill-rule="evenodd" stroke-width="0.383082" stroke-linecap="round" stroke-linejoin="round" stroke-miterlimit="4" stroke-dashoffset="0" d="m149.150719,99.088806l5.75404,-7.88472" id="svg_327"/>
                  <path stroke="#000000" fill="none" fill-rule="evenodd" stroke-width="0.383082" stroke-linecap="round" stroke-linejoin="round" stroke-miterlimit="4" stroke-dashoffset="0" id="svg_326" d="m154.926879,93.043566l-4.52923,6.02335"/>
                  <path stroke="#000000" fill="none" fill-rule="evenodd" stroke-width="0.383082" stroke-linecap="round" stroke-linejoin="round" stroke-miterlimit="4" stroke-dashoffset="0" id="svg_325" d="m151.552219,99.066916l3.34,-4.40274"/>
                  <path stroke="#000000" fill="none" fill-rule="evenodd" stroke-width="0.383082" stroke-linecap="round" stroke-linejoin="round" stroke-miterlimit="4" stroke-dashoffset="0" id="svg_324" d="m152.682839,99.044796l2.23259,-2.72778"/>
                  <path stroke="#000000" fill="none" fill-rule="evenodd" stroke-width="0.383082" stroke-linecap="round" stroke-linejoin="round" stroke-miterlimit="4" stroke-dashoffset="0" id="svg_323" d="m151.380029,99.044796l-2.24691,-2.74343"/>
                  <path stroke="#000000" fill="none" fill-rule="evenodd" stroke-width="0.383082" stroke-linecap="round" stroke-linejoin="round" stroke-miterlimit="4" stroke-dashoffset="0" id="svg_322" d="m153.856479,99.089036l1.05261,-1.32746"/>
                  <path stroke="#000000" fill="none" fill-rule="evenodd" stroke-width="0.383082" stroke-linecap="round" stroke-linejoin="round" stroke-miterlimit="4" stroke-dashoffset="0" d="m149.150719,97.586956l5.21013,-7.25894" id="svg_321"/>
                  <path stroke="#000000" fill="none" fill-rule="evenodd" stroke-width="0.383082" stroke-linecap="round" stroke-linejoin="round" stroke-miterlimit="4" stroke-dashoffset="0" d="m149.122089,96.085106l4.11549,-5.8653" id="svg_320"/>
                  <path stroke="#000000" fill="none" fill-rule="evenodd" stroke-width="0.383082" stroke-linecap="round" stroke-linejoin="round" stroke-miterlimit="4" stroke-dashoffset="0" id="svg_319" d="m154.919159,97.547846l-5.1314,-7.13379"/>
                  <path stroke="#000000" fill="none" fill-rule="evenodd" stroke-width="0.383082" stroke-linecap="round" stroke-linejoin="round" stroke-miterlimit="4" stroke-dashoffset="0" id="svg_318" d="m154.918959,95.991236l-3.98211,-5.67488"/>
                  <path stroke="#000000" fill="none" fill-rule="evenodd" stroke-width="0.383082" stroke-linecap="round" stroke-linejoin="round" stroke-miterlimit="4" stroke-dashoffset="0" d="m149.112889,94.420796l2.93739,-4.18909l1.24421,-1.51505" id="svg_317"/>
                  <path stroke="#000000" fill="none" fill-rule="evenodd" stroke-width="0.383082" stroke-linecap="round" stroke-linejoin="round" stroke-miterlimit="4" stroke-dashoffset="0" id="svg_316" d="m154.943049,94.420796l-2.88728,-4.22038l-1.25183,-1.61674"/>
                  <path stroke="#000000" fill="none" fill-rule="evenodd" stroke-width="0.383082" stroke-linecap="round" stroke-linejoin="round" stroke-miterlimit="4" stroke-dashoffset="0" d="m149.133119,92.827846l1.80157,-2.50005" id="svg_315"/>
                  <path stroke="#000000" fill="none" fill-rule="evenodd" stroke-width="0.383082" stroke-linecap="round" stroke-linejoin="round" stroke-miterlimit="4" stroke-dashoffset="0" d="m154.902209,92.805716l-1.65987,-2.58302" id="svg_314"/>
                  <path stroke="#000000" fill="#474747" fill-rule="evenodd" stroke-width="0.383082" stroke-linecap="round" stroke-linejoin="round" stroke-miterlimit="4" stroke-dashoffset="0" id="svg_313" d="m153.814179,89.503656l-0.23785,-0.0166l-0.32893,0.73567l0.0883,-0.77665l-0.025,-0.74575l0.50348,0.80333z"/>
                  <path stroke="#000000" fill="#474747" fill-rule="evenodd" stroke-width="0.383082" stroke-linecap="round" stroke-linejoin="round" stroke-miterlimit="4" stroke-dashoffset="0" d="m150.431209,89.592156l0.19231,0.0221l0.31375,0.71354l-0.10627,-0.87945l-0.0102,-0.84072l-0.38959,0.98453z" id="svg_312"/>
                  <path stroke="#000000" fill="#474747" fill-rule="evenodd" stroke-width="0.383082" stroke-linecap="round" stroke-linejoin="round" stroke-miterlimit="4" stroke-dashoffset="0" d="m152.017009,88.673626l0,0.71182l-0.12525,0.0117l-0.24332,0.23471l0.42224,0.56319l0.52245,-0.50843l-0.22544,-0.26987l-0.12525,-0.0195l-0.004,-0.72752l-0.22143,0.0039z" id="svg_311"/>
                  <path stroke="#000000" fill="none" fill-rule="evenodd" stroke-width="0.383082" stroke-linecap="round" stroke-linejoin="round" stroke-miterlimit="4" stroke-dashoffset="0" d="m151.626959,89.670946l-0.74431,0.0782" id="svg_310"/>
                  <path stroke="#000000" fill="none" fill-rule="evenodd" stroke-width="0.383082" stroke-linecap="round" stroke-linejoin="round" stroke-miterlimit="4" stroke-dashoffset="0" d="m152.607439,89.670946l0.70136,0.0704" id="svg_309"/>
                  <path stroke="#000000" fill="none" fill-rule="evenodd" stroke-width="0.383082" stroke-linecap="round" stroke-linejoin="round" stroke-miterlimit="4" stroke-dashoffset="0" d="m150.469119,89.564506l-0.56679,-0.0443c0,0 -0.106,0.3128 -0.23278,0.4425c-0.12677,0.1297 -0.51617,0.27655 -0.51617,0.27655c0,0 0.006,0.27229 -0.0911,0.43143c-0.0974,0.15913 -0.52631,0.4093 -0.52631,0.4093c0,0 0.13429,0.53777 0.11133,0.8186c-0.023,0.28082 -0.25303,0.81859 -0.25303,0.81859c0,0 0.24384,0.56374 0.24292,0.85179c-0.00092,0.28806 -0.23279,0.79649 -0.23279,0.79649c0,0 0.1915,0.61773 0.1923,0.9071c0.00079,0.28936 -0.16194,0.7854 -0.16194,0.7854c0,0 0.21297,0.5405 0.20243,0.80755c-0.0105,0.26705 -0.24292,0.71904 -0.24292,0.71904c0,0 0.19695,0.47765 0.19231,0.70797c-0.005,0.23032 -0.19231,0.60843 -0.19231,0.60843l0.71861,0.21018" id="svg_308"/>
                  <path stroke="#000000" fill="none" fill-rule="evenodd" stroke-width="0.383082" stroke-linecap="round" stroke-linejoin="round" stroke-miterlimit="4" stroke-dashoffset="0" d="m148.546099,91.080026l0.53642,0.12168" id="svg_307"/>
                  <path stroke="#000000" fill="none" fill-rule="evenodd" stroke-width="0.383082" stroke-linecap="round" stroke-linejoin="round" stroke-miterlimit="4" stroke-dashoffset="0" d="m149.780509,90.453156l-0.0715,1.54879" id="svg_306"/>
                  <path stroke="#000000" fill="none" fill-rule="evenodd" stroke-width="0.383082" stroke-linecap="round" stroke-linejoin="round" stroke-miterlimit="4" stroke-dashoffset="0" d="m150.925599,90.390586l-0.0716,1.45492" id="svg_305"/>
                  <path stroke="#000000" fill="none" fill-rule="evenodd" stroke-width="0.383082" stroke-linecap="round" stroke-linejoin="round" stroke-miterlimit="4" stroke-dashoffset="0" d="m153.230069,90.296716l-0.0143,1.54879" id="svg_304"/>
                  <path stroke="#000000" fill="none" fill-rule="evenodd" stroke-width="0.383082" stroke-linecap="round" stroke-linejoin="round" stroke-miterlimit="4" stroke-dashoffset="0" d="m154.360849,90.374946l0,1.56443" id="svg_303"/>
                  <path stroke="null" fill="#4d4d4d" fill-rule="evenodd" stroke-width="0.4" stroke-linecap="round" stroke-linejoin="round" stroke-miterlimit="4" stroke-dashoffset="0" d="m150.538019,88.659476l0.48438,-0.0156l0.0781,-0.56253l0.32815,-0.46875l0.59375,-0.17187l0.42188,-0.0625l-0.48438,-0.35938l-0.73437,0l-0.5,0.40625l-0.1875,0.67188l-0.00001,0.5625z" id="svg_302"/>
                  <path stroke="#000000" fill="none" fill-rule="evenodd" stroke-width="0.383082" stroke-linecap="round" stroke-linejoin="round" stroke-miterlimit="4" stroke-dashoffset="0" d="m152.657279,87.495626c0,0 -0.49066,-0.37351 -0.64973,-0.42011c-0.19542,-0.0572 -0.40544,-0.0934 -0.60727,-0.0664c-0.17968,0.024 -0.36796,0.0817 -0.50607,0.19912c-0.13075,0.11115 -0.20345,0.2816 -0.26315,0.44249c-0.0677,0.18253 -0.0807,0.38162 -0.1012,0.57523c-0.0194,0.18347 -0.0202,0.55311 -0.0202,0.55311l0.46557,0.42037" id="svg_301"/>
                  <path stroke="#000000" fill="none" fill-rule="evenodd" stroke-width="0.383082" stroke-linecap="round" stroke-linejoin="round" stroke-miterlimit="4" stroke-dashoffset="0" d="m151.015669,88.579966c0,0 0.0115,-0.35179 0.081,-0.50886c0.0917,-0.20735 0.22924,-0.41674 0.42508,-0.53099c0.15941,-0.093 0.36214,-0.0811 0.54655,-0.0885c0.18263,-0.007 0.37518,-0.0193 0.54654,0.0443c0.16438,0.061 0.32099,0.16868 0.4251,0.30975c0.0741,0.10037 0.092,0.23276 0.12145,0.35399c0.0439,0.18109 0.081,0.55311 0.081,0.55311" id="svg_300"/>
                </g>
                <g stroke="null" id="svg_261" transform="matrix(1, 0, 0, 1, -0.325568, -1.289809)">
                  <path stroke="null" fill="#1a1a1a" fill-rule="evenodd" stroke-width="0.09577" stroke-linecap="round" stroke-linejoin="round" stroke-miterlimit="4" stroke-dashoffset="0" id="svg_298" d="m133.413275,92.752327l-0.38248,-0.81804l-0.89604,-0.22267l-0.74116,0.5769l-0.0553,1.07285l0.67655,0.6096l0.83741,-0.1535l0.50624,-0.43543l0.05478,-0.62971z"/>
                  <path stroke="null" fill="#474747" fill-rule="evenodd" stroke-width="0.09577" stroke-linecap="round" stroke-linejoin="round" stroke-miterlimit="4" stroke-dashoffset="0" id="svg_297" d="m131.249785,94.514407l0.0664,0.5263l-1.59296,1.29552l-0.92923,0.0202l-0.77435,0.16193l-0.84073,-0.20242l-0.92922,0.18218l-0.77435,-0.12145l-0.68585,0.14169l-0.68586,-0.20242l-0.81861,0.18218l-0.5531,-0.081l-0.8186,0.0607l-0.19913,-0.64775l7.92053,0.0203l1.61506,-1.33596z"/>
                  <path stroke="#000000" fill="none" fill-rule="evenodd" stroke-width="0.383082" stroke-linecap="round" stroke-linejoin="round" stroke-miterlimit="4" stroke-dashoffset="0" id="svg_295" d="m129.623645,95.809917l-7.86521,0l0,-5.78932l7.86588,5.7882l1.6263,-1.30189l0.99754,-0.38211"/>
                  <path stroke="#000000" fill="none" fill-rule="evenodd" stroke-width="0.383082" stroke-linecap="round" stroke-linejoin="round" stroke-miterlimit="4" stroke-dashoffset="0" id="svg_294" d="m127.803905,95.804857l-6.02335,-4.52923"/>
                  <path stroke="#000000" fill="none" fill-rule="evenodd" stroke-width="0.383082" stroke-linecap="round" stroke-linejoin="round" stroke-miterlimit="4" stroke-dashoffset="0" id="svg_293" d="m121.780555,92.469927l4.40274,3.34"/>
                  <path stroke="#000000" fill="none" fill-rule="evenodd" stroke-width="0.383082" stroke-linecap="round" stroke-linejoin="round" stroke-miterlimit="4" stroke-dashoffset="0" id="svg_292" d="m121.802675,93.563017l2.74343,2.24691"/>
                  <path stroke="#000000" fill="none" fill-rule="evenodd" stroke-width="0.383082" stroke-linecap="round" stroke-linejoin="round" stroke-miterlimit="4" stroke-dashoffset="0" id="svg_291" d="m121.758435,94.757317l1.32746,1.05261"/>
                  <path stroke="#000000" fill="none" fill-rule="evenodd" stroke-width="0.383082" stroke-linecap="round" stroke-linejoin="round" stroke-miterlimit="4" stroke-dashoffset="0" id="svg_290" d="m121.775025,90.020617l7.8984,0l1.72603,1.14128"/>
                  <path stroke="#000000" fill="none" fill-rule="evenodd" stroke-width="0.383082" stroke-linecap="round" stroke-linejoin="round" stroke-miterlimit="4" stroke-dashoffset="0" id="svg_289" d="m121.758665,95.792327l7.88472,-5.75404"/>
                  <path stroke="#000000" fill="none" fill-rule="evenodd" stroke-width="0.383082" stroke-linecap="round" stroke-linejoin="round" stroke-miterlimit="4" stroke-dashoffset="0" d="m127.803905,90.016167l-6.02335,4.52923" id="svg_288"/>
                  <path stroke="#000000" fill="none" fill-rule="evenodd" stroke-width="0.383082" stroke-linecap="round" stroke-linejoin="round" stroke-miterlimit="4" stroke-dashoffset="0" d="m121.780555,93.390827l4.40274,-3.34" id="svg_287"/>
                  <path stroke="#000000" fill="none" fill-rule="evenodd" stroke-width="0.383082" stroke-linecap="round" stroke-linejoin="round" stroke-miterlimit="4" stroke-dashoffset="0" d="m121.802675,92.260207l2.72778,-2.23259" id="svg_286"/>
                  <path stroke="#000000" fill="none" fill-rule="evenodd" stroke-width="0.383082" stroke-linecap="round" stroke-linejoin="round" stroke-miterlimit="4" stroke-dashoffset="0" d="m121.802675,93.563017l2.74343,2.24691" id="svg_285"/>
                  <path stroke="#000000" fill="none" fill-rule="evenodd" stroke-width="0.383082" stroke-linecap="round" stroke-linejoin="round" stroke-miterlimit="4" stroke-dashoffset="0" d="m121.758435,91.086567l1.32746,-1.05261" id="svg_284"/>
                  <path stroke="#000000" fill="none" fill-rule="evenodd" stroke-width="0.383082" stroke-linecap="round" stroke-linejoin="round" stroke-miterlimit="4" stroke-dashoffset="0" id="svg_283" d="m123.260515,95.792327l7.25894,-5.21013"/>
                  <path stroke="#000000" fill="none" fill-rule="evenodd" stroke-width="0.383082" stroke-linecap="round" stroke-linejoin="round" stroke-miterlimit="4" stroke-dashoffset="0" id="svg_282" d="m124.762365,95.820957l5.8653,-4.11549"/>
                  <path stroke="#000000" fill="none" fill-rule="evenodd" stroke-width="0.383082" stroke-linecap="round" stroke-linejoin="round" stroke-miterlimit="4" stroke-dashoffset="0" d="m123.299625,90.023887l7.13379,5.1314" id="svg_281"/>
                  <path stroke="#000000" fill="none" fill-rule="evenodd" stroke-width="0.383082" stroke-linecap="round" stroke-linejoin="round" stroke-miterlimit="4" stroke-dashoffset="0" d="m124.856235,90.024087l5.67488,3.98211" id="svg_280"/>
                  <path stroke="#000000" fill="none" fill-rule="evenodd" stroke-width="0.383082" stroke-linecap="round" stroke-linejoin="round" stroke-miterlimit="4" stroke-dashoffset="0" id="svg_279" d="m126.426675,95.830157l4.18909,-2.93739l1.51505,-1.24421"/>
                  <path stroke="#000000" fill="none" fill-rule="evenodd" stroke-width="0.383082" stroke-linecap="round" stroke-linejoin="round" stroke-miterlimit="4" stroke-dashoffset="0" d="m126.426675,89.999997l4.22038,2.88728l1.61674,1.25183" id="svg_278"/>
                  <path stroke="#000000" fill="none" fill-rule="evenodd" stroke-width="0.383082" stroke-linecap="round" stroke-linejoin="round" stroke-miterlimit="4" stroke-dashoffset="0" id="svg_277" d="m128.019625,95.809927l2.50005,-1.80157"/>
                  <path stroke="#000000" fill="none" fill-rule="evenodd" stroke-width="0.383082" stroke-linecap="round" stroke-linejoin="round" stroke-miterlimit="4" stroke-dashoffset="0" id="svg_276" d="m128.041755,90.040837l2.58302,1.65987"/>
                  <path stroke="#000000" fill="#474747" fill-rule="evenodd" stroke-width="0.383082" stroke-linecap="round" stroke-linejoin="round" stroke-miterlimit="4" stroke-dashoffset="0" d="m131.343815,91.128867l0.0166,0.23785l-0.73567,0.32893l0.77665,-0.0883l0.74575,0.025l-0.80333,-0.50348z" id="svg_275"/>
                  <path stroke="#000000" fill="#474747" fill-rule="evenodd" stroke-width="0.383082" stroke-linecap="round" stroke-linejoin="round" stroke-miterlimit="4" stroke-dashoffset="0" id="svg_274" d="m131.255315,94.511837l-0.0221,-0.19231l-0.71354,-0.31375l0.87945,0.10627l0.84072,0.0102l-0.98453,0.38959z"/>
                  <path stroke="#000000" fill="#474747" fill-rule="evenodd" stroke-width="0.383082" stroke-linecap="round" stroke-linejoin="round" stroke-miterlimit="4" stroke-dashoffset="0" id="svg_273" d="m132.173845,92.926037l-0.71182,0l-0.0117,0.12525l-0.23471,0.24332l-0.56319,-0.42224l0.50843,-0.52245l0.26987,0.22544l0.0195,0.12525l0.72752,0.004l-0.0039,0.22143z"/>
                  <path stroke="#000000" fill="none" fill-rule="evenodd" stroke-width="0.383082" stroke-linecap="round" stroke-linejoin="round" stroke-miterlimit="4" stroke-dashoffset="0" id="svg_272" d="m131.176525,93.316087l-0.0782,0.74431"/>
                  <path stroke="#000000" fill="none" fill-rule="evenodd" stroke-width="0.383082" stroke-linecap="round" stroke-linejoin="round" stroke-miterlimit="4" stroke-dashoffset="0" id="svg_271" d="m131.176525,92.335607l-0.0704,-0.70136"/>
                  <path stroke="#000000" fill="none" fill-rule="evenodd" stroke-width="0.383082" stroke-linecap="round" stroke-linejoin="round" stroke-miterlimit="4" stroke-dashoffset="0" id="svg_270" d="m131.282965,94.473927l0.0443,0.56679c0,0 -0.3128,0.106 -0.4425,0.23278c-0.1297,0.12677 -0.27655,0.51617 -0.27655,0.51617c0,0 -0.27229,-0.006 -0.43143,0.0911c-0.15913,0.0974 -0.4093,0.52631 -0.4093,0.52631c0,0 -0.53777,-0.13429 -0.8186,-0.11133c-0.28082,0.023 -0.81859,0.25303 -0.81859,0.25303c0,0 -0.56374,-0.24384 -0.85179,-0.24292c-0.28806,0.00092 -0.79649,0.23279 -0.79649,0.23279c0,0 -0.61773,-0.1915 -0.9071,-0.1923c-0.28936,-0.00079 -0.7854,0.16194 -0.7854,0.16194c0,0 -0.5405,-0.21297 -0.80755,-0.20243c-0.26705,0.0105 -0.71904,0.24292 -0.71904,0.24292c0,0 -0.47765,-0.19695 -0.70797,-0.19231c-0.23032,0.005 -0.60843,0.19231 -0.60843,0.19231l-0.21018,-0.71861"/>
                  <path stroke="#000000" fill="none" fill-rule="evenodd" stroke-width="0.383082" stroke-linecap="round" stroke-linejoin="round" stroke-miterlimit="4" stroke-dashoffset="0" id="svg_269" d="m129.767445,96.396947l-0.12168,-0.53642"/>
                  <path stroke="#000000" fill="none" fill-rule="evenodd" stroke-width="0.383082" stroke-linecap="round" stroke-linejoin="round" stroke-miterlimit="4" stroke-dashoffset="0" id="svg_268" d="m130.394315,95.162537l-1.54879,0.0715"/>
                  <path stroke="#000000" fill="none" fill-rule="evenodd" stroke-width="0.383082" stroke-linecap="round" stroke-linejoin="round" stroke-miterlimit="4" stroke-dashoffset="0" id="svg_267" d="m130.456885,94.017447l-1.45492,0.0716"/>
                  <path stroke="#000000" fill="none" fill-rule="evenodd" stroke-width="0.383082" stroke-linecap="round" stroke-linejoin="round" stroke-miterlimit="4" stroke-dashoffset="0" id="svg_266" d="m130.550755,91.712977l-1.54879,0.0143"/>
                  <path stroke="#000000" fill="none" fill-rule="evenodd" stroke-width="0.383082" stroke-linecap="round" stroke-linejoin="round" stroke-miterlimit="4" stroke-dashoffset="0" id="svg_265" d="m130.472525,90.582197l-1.56443,0"/>
                  <path stroke="null" fill="#4d4d4d" fill-rule="evenodd" stroke-width="0.4" stroke-linecap="round" stroke-linejoin="round" stroke-miterlimit="4" stroke-dashoffset="0" id="svg_264" d="m132.187995,94.405027l0.0156,-0.48438l0.56253,-0.0781l0.46875,-0.32815l0.17187,-0.59375l0.0625,-0.42188l0.35938,0.48438l0,0.73437l-0.40625,0.5l-0.67188,0.1875l-0.5625,0.00001z"/>
                  <path stroke="#000000" fill="none" fill-rule="evenodd" stroke-width="0.383082" stroke-linecap="round" stroke-linejoin="round" stroke-miterlimit="4" stroke-dashoffset="0" id="svg_263" d="m133.351845,92.285767c0,0 0.37351,0.49066 0.42011,0.64973c0.0572,0.19542 0.0934,0.40544 0.0664,0.60727c-0.024,0.17968 -0.0817,0.36796 -0.19912,0.50607c-0.11115,0.13075 -0.2816,0.20345 -0.44249,0.26315c-0.18253,0.0677 -0.38162,0.0807 -0.57523,0.1012c-0.18347,0.0194 -0.55311,0.0202 -0.55311,0.0202l-0.42037,-0.46557"/>
                  <path stroke="#000000" fill="none" fill-rule="evenodd" stroke-width="0.383082" stroke-linecap="round" stroke-linejoin="round" stroke-miterlimit="4" stroke-dashoffset="0" id="svg_262" d="m132.267505,93.927377c0,0 0.35179,-0.0115 0.50886,-0.081c0.20735,-0.0917 0.41674,-0.22924 0.53099,-0.42508c0.093,-0.15941 0.0811,-0.36214 0.0885,-0.54655c0.007,-0.18263 0.0193,-0.37518 -0.0443,-0.54654c-0.061,-0.16438 -0.16868,-0.32099 -0.30975,-0.4251c-0.10037,-0.0741 -0.23276,-0.092 -0.35399,-0.12145c-0.18109,-0.0439 -0.55311,-0.081 -0.55311,-0.081"/>
                </g>
              </g>
              <path stroke="#000000" fill="none" stroke-width="0.400938" stroke-miterlimit="4" id="svg_259" d="m130.337885,302.760051l0,-194.583"/>
              <g stroke="null" id="svg_243" transform="matrix(-0.173647, -0.984808, 0.984808, -0.173647, -265.05542, 354.121399)">
                <rect stroke="null" fill="#101010" id="svg_258" width="0.476563" height="0.453125" x="-23.139768" y="398.617126"/>
                <path stroke="null" fill="url(#svg_257)" stroke-width="0.4" stroke-miterlimit="4" id="svg_256" d="m-20.217712,343.999391l-0.0586,0.004l-0.0605,0.01l-0.0606,0.0156l-0.0605,0.0215l-0.0605,0.0293l-0.0625,0.0332l-0.0625,0.041l-0.0625,0.0469l-0.0645,0.0527l-0.0645,0.0606l-0.0664,0.0664l-0.0664,0.0762l-0.0684,0.084l-0.0703,0.0918l-0.0684,0.0996l-0.0723,0.10937l-0.0723,0.11914l-0.0742,0.12696l-0.0742,0.13672l-0.0762,0.14453l-0.0762,0.15234l-0.0762,0.15821l-0.0762,0.1621l-0.0742,0.16602l-0.0742,0.16992l-0.0723,0.16992l-0.0703,0.17383l-0.0703,0.17188l-0.0664,0.17187l-0.0625,0.16992l-0.0605,0.16797l-0.0566,0.16797l-0.0547,0.16602l-0.0508,0.16601l-0.0449,0.16602l-0.043,0.16601l-0.0391,0.16797l-0.0352,0.16797l-0.0254,0.14649l-0.0137,0.0351l-0.0293,0.0762l-0.0273,0.0762l-0.0527,0.15039l-0.0488,0.14453l-0.0469,0.14453l-0.041,0.14062l-0.041,0.13868l-0.0391,0.13671l-0.0371,0.13672l-0.0352,0.13477l-0.0351,0.13672l-0.0332,0.13867l-0.0312,0.14062l-0.0312,0.14454l-0.0312,0.14843l-0.0137,0.0762l-0.0156,0.0762l-0.0156,0.0801l-0.0137,0.0801l-0.0156,0.084l-0.0137,0.084l-0.0156,0.0859l-0.0137,0.0879l-0.0137,0.0918l-0.0156,0.0918l-0.006,0.0488l-0.002,0.0117l-0.002,0.006l0,0.002l0,0.002l0,0.002l0,0.004l-0.002,0.0293l-0.0137,0.44922l-0.0605,1.80469l-0.24219,7.21289l-0.48047,14.42578l-0.48242,14.42578l-0.24023,7.21289l-0.004,0.1113l-0.002,0.057l0,0.01l0,0l0.002,0.012l0.004,0.023l0.01,0.047l0.0176,0.092l0.0215,0.094l0.0215,0.094l0.0234,0.094l0.0273,0.094l0.0273,0.094l0.0332,0.094l0.0332,0.092l0.0391,0.092l0.043,0.092l0.0449,0.092l0.0508,0.092l0.0547,0.09l0.0605,0.088l0.0645,0.088l0.0703,0.088l0.0371,0.043l0.0391,0.043l0.041,0.041l0.041,0.043l0.043,0.041l0.0449,0.043l0.0469,0.041l0.0488,0.041l0.0508,0.039l0.0508,0.041l0.0527,0.039l0.0566,0.039l0.0566,0.039l0.0586,0.039l0.0605,0.037l0.0645,0.039l0.0645,0.037l0.0332,0.016l0.0156,0l0.0176,0l0.0156,0l0.008,0l0.008,0l0.008,-0.01l0.01,-0.01l0.008,-0.012l0.008,-0.012l0.008,-0.014l0.006,-0.018l0.002,0l0.002,-0.01l0.002,-0.016l0.004,-0.031l0.0137,-0.1269l0.0312,-0.2578l0.0293,-0.2598l0.0293,-0.2617l0.0293,-0.2637l0.0293,-0.2676l0.0293,-0.2676l0.0293,-0.2695l0.0293,-0.2734l0.0293,-0.2734l0.0293,-0.2754l0.0586,-0.5528l0.0586,-0.5586l0.0586,-0.5605l0.0586,-0.56252l0.1211,-1.12695l0.0586,-0.56055l0.0625,-0.55859l0.0605,-0.55274l0.0312,-0.27539l0.0312,-0.27539l0.0312,-0.27148l0.0332,-0.27149l0.0312,-0.26758l0.0312,-0.26757l0.0332,-0.26368l0.0332,-0.26171l0.0332,-0.25977l0.0332,-0.25781l0.0332,-0.25586l0.0332,-0.25l0.0352,-0.25l0.0332,-0.24414l0.0352,-0.24219l0.0351,-0.24023l0.0371,-0.23438l0.0352,-0.23242l0.0352,-0.22656l0.0371,-0.22461l0.0371,-0.21875l0.0371,-0.21485l0.0469,-0.14258l0.0781,-0.15429l0.10938,-0.16211l0.13476,-0.16016l0.16016,-0.15234l0.18164,-0.13672l0.19726,-0.11328l0.21485,-0.084l0.22461,-0.0449l0.23437,0l0.24024,0.0527l0.24218,0.11133l0.4043,1.05664l0.42383,1.16601l0.42187,1.16602l0.42383,1.16601l0.42188,1.16602l0.42383,1.16601l0.42187,1.16602l0.42383,1.16601l0.42187,1.16802l0.42383,1.166l0.42188,1.166l0.42383,1.166l0.10742,0.2832l0.0195,0.035l0.0215,0.033l0.0234,0.029l0.0254,0.029l0.0273,0.025l0.0274,0.023l0.0273,0.022l0.0312,0.019l0.0293,0.016l0.0312,0.016l0.0312,0.014l0.0332,0.01l0.0332,0.01l0.0313,0.01l0.0332,0l0.0312,0l0.0332,0l0.0293,0l0.0312,0l0.0273,0l0.0274,0l0.0273,0l0.0234,0l0.0391,0l0.0527,-0.025l0.0527,-0.049l0.0508,-0.074l0.0488,-0.094l0.0469,-0.1133l0.043,-0.1269l0.041,-0.1407l0.0371,-0.1503l0.0332,-0.1582l0.0293,-0.1622l0.0234,-0.164l-0.1914,-1.8223l-0.44922,-3.81639l-0.44922,-3.81445l-0.44922,-3.81641l-0.44922,-3.81445l-0.44726,-3.81641l-0.44922,-3.81445l-0.44922,-3.81641l-0.44922,-3.81445l-0.44727,-3.81641l-0.44921,-3.81445l-0.44922,-3.81641l-0.29297,-2.58398l-0.004,-0.25l-0.002,-0.25196l-0.002,-0.25l-0.002,-0.25l-0.002,-0.25195l-0.002,-0.25l-0.002,-0.25195l-0.002,-0.25l-0.002,-0.25l-0.002,-0.25196l-0.002,-0.25l-0.01,-0.31445l-0.0352,-0.48828l-0.0371,-0.44141l-0.0371,-0.40039l-0.0371,-0.35937l-0.041,-0.32422l-0.0391,-0.28906l-0.041,-0.26172l-0.041,-0.23242l-0.043,-0.20899l-0.043,-0.1875l-0.0449,-0.17187l-0.0449,-0.15625l-0.0449,-0.14453l-0.0469,-0.13282l-0.0449,-0.12109l-0.0488,-0.11133l-0.0469,-0.10156l-0.0488,-0.0918l-0.0508,-0.084l-0.0488,-0.0742l-0.0527,-0.0664l-0.0508,-0.0586l-0.0527,-0.0527l-0.0527,-0.0449l-0.0547,-0.0391l-0.0547,-0.0312l-0.0547,-0.0273l-0.0566,-0.0195l-0.0566,-0.0137l-0.0566,-0.008l-0.05904,-0.00039z"/>
                <path stroke="null" fill="url(#svg_255)" fill-rule="evenodd" stroke-width="0.4" stroke-linecap="round" stroke-linejoin="round" stroke-miterlimit="4" stroke-dashoffset="0" id="svg_254" d="m-23.291882,399.441131l0.6875,-6.28125l0.17188,-1.96875l0.60937,-4.625l0.0937,-0.64063l0.32818,-0.53125l0.42187,-0.375l0.42188,-0.1875l0.4375,-0.0469l0.29687,0.0469l0.26563,0.20313l5.09375,14.12495l0.29687,0.2657l0.34375,0.062l-0.0156,-0.2339l-7.68752,-20.67188l-0.375,-0.42187l-0.40625,-0.26563l-0.42188,0.10938l-0.17187,0.51562l-1.60938,19.90628l0.39063,0.5l0.39062,0.3593l0.4375,0.1563z"/>
                <path stroke="#000000" fill="none" stroke-width="0.4" stroke-miterlimit="4" d="m-18.737872,348.852861l-1.23406,-1.30732" id="svg_253"/>
                <path stroke="#000000" fill="none" stroke-width="0.4" stroke-miterlimit="4" d="m-19.971932,347.545541l-2.43028,0.008" id="svg_252"/>
                <path stroke="#000000" fill="none" stroke-width="0.4" stroke-miterlimit="4" d="m-22.491432,377.910431l0.17448,-24.11936" id="svg_251"/>
                <path stroke="#000000" fill="none" stroke-width="0.4" stroke-miterlimit="4" d="m-22.316952,353.791071l2.16051,-2.92528" id="svg_250"/>
                <path stroke="#000000" fill="none" stroke-width="0.4" stroke-miterlimit="4" d="m-22.316952,353.791071l-1.03222,-2.67419" id="svg_249"/>
                <path stroke="#000000" fill="none" stroke-width="0.4" stroke-linecap="round" stroke-miterlimit="4" d="m-20.156442,350.865791l0.18451,-3.32025" id="svg_248"/>
                <path stroke="#000000" fill="none" stroke-width="0.4" stroke-miterlimit="4" d="m-23.182062,398.540231l0.61379,0" id="svg_247"/>
                <path stroke="#000000" fill="none" stroke-width="0.4" stroke-miterlimit="4" d="m-23.257142,399.196231l0.68887,0" id="svg_246"/>
                <path stroke="#000000" fill="none" stroke-width="0.4" stroke-miterlimit="4" d="m-24.500452,398.443831l0.11841,-1.5018l0.11841,-1.5018l0.11841,-1.5018l0.1184,-1.5018l0.11841,-1.5018l0.11841,-1.5018l0.11841,-1.5018l0.11841,-1.5018l0.11841,-1.5018l0.1184,-1.5018l0.11841,-1.5018l0.11841,-1.5018l0.11841,-1.5018l0.0498,-0.4765l0.033,-0.1192l0.0392,-0.1024l0.0448,-0.086l0.0498,-0.071l0.054,-0.057l0.0577,-0.043l0.0606,-0.031l0.0629,-0.019l0.0645,-0.01l0.0655,0l0.0657,0.01l0.0654,0.018l0.0644,0.025l0.063,0.032l0.0615,0.038l0.06,0.043l0.0584,0.047l0.0568,0.052l0.0551,0.055l0.0533,0.058l0.0514,0.06l0.0495,0.062l0.0476,0.063l0.0455,0.064l0.0435,0.064l0.17689,0.44l0.58285,1.5693l0.58284,1.5693l0.58285,1.5693l0.58285,1.5694l0.58284,1.5693l0.58285,1.5693l0.58285,1.5693l0.58284,1.5693l0.58285,1.5693l0.58284,1.5694l0.58285,1.5693l0.58285,1.5693l0.58284,1.5693" id="svg_245"/>
                <path stroke="#000000" fill="none" stroke-width="0.4" stroke-miterlimit="4" d="m-20.217712,343.999391l-0.0586,0.004l-0.0605,0.01l-0.0606,0.0156l-0.0605,0.0215l-0.0605,0.0293l-0.0625,0.0332l-0.0625,0.041l-0.0625,0.0469l-0.0645,0.0527l-0.0645,0.0606l-0.0664,0.0664l-0.0664,0.0762l-0.0684,0.084l-0.0703,0.0918l-0.0684,0.0996l-0.0723,0.10937l-0.0723,0.11914l-0.0742,0.12696l-0.0742,0.13672l-0.0762,0.14453l-0.0762,0.15234l-0.0762,0.15821l-0.0762,0.1621l-0.0742,0.16602l-0.0742,0.16992l-0.0723,0.16992l-0.0703,0.17383l-0.0703,0.17188l-0.0664,0.17187l-0.0625,0.16992l-0.0605,0.16797l-0.0566,0.16797l-0.0547,0.16602l-0.0508,0.16601l-0.0449,0.16602l-0.043,0.16601l-0.0391,0.16797l-0.0352,0.16797l-0.0254,0.14649l-0.0137,0.0351l-0.0293,0.0762l-0.0273,0.0762l-0.0527,0.15039l-0.0488,0.14453l-0.0469,0.14453l-0.041,0.14062l-0.041,0.13868l-0.0391,0.13671l-0.0371,0.13672l-0.0352,0.13477l-0.0351,0.13672l-0.0332,0.13867l-0.0312,0.14062l-0.0312,0.14454l-0.0312,0.14843l-0.0137,0.0762l-0.0156,0.0762l-0.0156,0.0801l-0.0137,0.0801l-0.0156,0.084l-0.0137,0.084l-0.0156,0.0859l-0.0137,0.0879l-0.0137,0.0918l-0.0156,0.0918l-0.006,0.0488l-0.002,0.0117l-0.002,0.006l0,0.002l0,0.002l0,0.002l0,0.004l-0.002,0.0293l-0.0137,0.44922l-0.0605,1.80469l-0.24219,7.21289l-0.48047,14.42578l-0.48242,14.42578l-0.24023,7.21289l-0.004,0.1113l-0.002,0.057l0,0.01l0,0l0.002,0.012l0.004,0.023l0.01,0.047l0.0176,0.092l0.0215,0.094l0.0215,0.094l0.0234,0.094l0.0273,0.094l0.0273,0.094l0.0332,0.094l0.0332,0.092l0.0391,0.092l0.043,0.092l0.0449,0.092l0.0508,0.092l0.0547,0.09l0.0605,0.088l0.0645,0.088l0.0703,0.088l0.0371,0.043l0.0391,0.043l0.041,0.041l0.041,0.043l0.043,0.041l0.0449,0.043l0.0469,0.041l0.0488,0.041l0.0508,0.039l0.0508,0.041l0.0527,0.039l0.0566,0.039l0.0566,0.039l0.0586,0.039l0.0605,0.037l0.0645,0.039l0.0645,0.037l0.0332,0.016l0.0156,0l0.0176,0l0.0156,0l0.008,0l0.008,0l0.008,-0.01l0.01,-0.01l0.008,-0.012l0.008,-0.012l0.008,-0.014l0.006,-0.018l0.002,0l0.002,-0.01l0.002,-0.016l0.004,-0.031l0.0137,-0.1269l0.0312,-0.2578l0.0293,-0.2598l0.0293,-0.2617l0.0293,-0.2637l0.0293,-0.2676l0.0293,-0.2676l0.0293,-0.2695l0.0293,-0.2734l0.0293,-0.2734l0.0293,-0.2754l0.0586,-0.5528l0.0586,-0.5586l0.0586,-0.5605l0.0586,-0.56252l0.1211,-1.12695l0.0586,-0.56055l0.0625,-0.55859l0.0605,-0.55274l0.0312,-0.27539l0.0312,-0.27539l0.0312,-0.27148l0.0332,-0.27149l0.0312,-0.26758l0.0312,-0.26757l0.0332,-0.26368l0.0332,-0.26171l0.0332,-0.25977l0.0332,-0.25781l0.0332,-0.25586l0.0332,-0.25l0.0352,-0.25l0.0332,-0.24414l0.0352,-0.24219l0.0351,-0.24023l0.0371,-0.23438l0.0352,-0.23242l0.0352,-0.22656l0.0371,-0.22461l0.0371,-0.21875l0.0371,-0.21485l0.0469,-0.14258l0.0781,-0.15429l0.10938,-0.16211l0.13476,-0.16016l0.16016,-0.15234l0.18164,-0.13672l0.19726,-0.11328l0.21485,-0.084l0.22461,-0.0449l0.23437,0l0.24024,0.0527l0.24218,0.11133l0.4043,1.05664l0.42383,1.16601l0.42187,1.16602l0.42383,1.16601l0.42188,1.16602l0.42383,1.16601l0.42187,1.16602l0.42383,1.16601l0.42187,1.16802l0.42383,1.166l0.42188,1.166l0.42383,1.166l0.10742,0.2832l0.0195,0.035l0.0215,0.033l0.0234,0.029l0.0254,0.029l0.0273,0.025l0.0274,0.023l0.0273,0.022l0.0312,0.019l0.0293,0.016l0.0312,0.016l0.0312,0.014l0.0332,0.01l0.0332,0.01l0.0313,0.01l0.0332,0l0.0312,0l0.0332,0l0.0293,0l0.0312,0l0.0273,0l0.0274,0l0.0273,0l0.0234,0l0.0391,0l0.0527,-0.025l0.0527,-0.049l0.0508,-0.074l0.0488,-0.094l0.0469,-0.1133l0.043,-0.1269l0.041,-0.1407l0.0371,-0.1503l0.0332,-0.1582l0.0293,-0.1622l0.0234,-0.164l-0.1914,-1.8223l-0.44922,-3.81639l-0.44922,-3.81445l-0.44922,-3.81641l-0.44922,-3.81445l-0.44726,-3.81641l-0.44922,-3.81445l-0.44922,-3.81641l-0.44922,-3.81445l-0.44727,-3.81641l-0.44921,-3.81445l-0.44922,-3.81641l-0.29297,-2.58398l-0.004,-0.25l-0.002,-0.25196l-0.002,-0.25l-0.002,-0.25l-0.002,-0.25195l-0.002,-0.25l-0.002,-0.25195l-0.002,-0.25l-0.002,-0.25l-0.002,-0.25196l-0.002,-0.25l-0.01,-0.31445l-0.0352,-0.48828l-0.0371,-0.44141l-0.0371,-0.40039l-0.0371,-0.35937l-0.041,-0.32422l-0.0391,-0.28906l-0.041,-0.26172l-0.041,-0.23242l-0.043,-0.20899l-0.043,-0.1875l-0.0449,-0.17187l-0.0449,-0.15625l-0.0449,-0.14453l-0.0469,-0.13282l-0.0449,-0.12109l-0.0488,-0.11133l-0.0469,-0.10156l-0.0488,-0.0918l-0.0508,-0.084l-0.0488,-0.0742l-0.0527,-0.0664l-0.0508,-0.0586l-0.0527,-0.0527l-0.0527,-0.0449l-0.0547,-0.0391l-0.0547,-0.0312l-0.0547,-0.0273l-0.0566,-0.0195l-0.0566,-0.0137l-0.0566,-0.008l-0.05904,-0.00039z" id="svg_244"/>
              </g>
            </g>
          </g>
        </g>
      </g>
    </g>
  </g>
</svg>