# Blender v3.2.1 OBJ File: 'House.blend'
# www.blender.org
mtllib House.mtl
o Cube
v 0.594938 0.182484 0.212062
v 0.594938 0.645235 0.212062
v 0.594938 0.182484 0.472563
v 0.594938 0.645235 0.472563
v 0.132186 0.182484 0.212062
v 0.132186 0.645235 0.212062
v 0.132186 0.182484 0.472563
v 0.132186 0.645235 0.472563
vt 0.625000 0.000000
vt 0.375000 0.250000
vt 0.375000 0.000000
vt 0.625000 0.250000
vt 0.375000 0.500000
vt 0.625000 0.500000
vt 0.375000 0.750000
vt 0.625000 0.750000
vt 0.375000 1.000000
vt 0.125000 0.750000
vt 0.125000 0.500000
vt 0.875000 0.500000
vt 0.625000 1.000000
vt 0.875000 0.750000
vn 1.0000 0.0000 0.0000
vn 0.0000 0.0000 1.0000
vn -1.0000 0.0000 0.0000
vn -0.0000 -0.0000 -1.0000
vn 0.0000 -1.0000 0.0000
vn 0.0000 1.0000 -0.0000
usemtl None
s off
f 2/1/1 3/2/1 1/3/1
f 4/4/2 7/5/2 3/2/2
f 8/6/3 5/7/3 7/5/3
f 6/8/4 1/9/4 5/7/4
f 7/5/5 1/10/5 3/11/5
f 4/12/6 6/8/6 8/6/6
f 2/1/1 4/4/1 3/2/1
f 4/4/2 8/6/2 7/5/2
f 8/6/3 6/8/3 5/7/3
f 6/8/4 2/13/4 1/9/4
f 7/5/5 5/7/5 1/10/5
f 4/12/6 2/14/6 6/8/6
o Cube.001_Cube.003
v 0.861296 -0.001012 -0.021079
v 0.861296 0.543351 -0.021079
v 0.861296 -0.001012 0.250314
v 0.861296 0.543351 0.250314
v 0.636172 -0.001012 -0.021079
v 0.636172 0.543351 -0.021079
v 0.636172 -0.001012 0.250314
v 0.636172 0.543351 0.250314
vt 0.625000 0.000000
vt 0.375000 0.250000
vt 0.375000 0.000000
vt 0.625000 0.250000
vt 0.375000 0.500000
vt 0.625000 0.500000
vt 0.375000 0.750000
vt 0.625000 0.750000
vt 0.375000 1.000000
vt 0.125000 0.750000
vt 0.125000 0.500000
vt 0.875000 0.500000
vt 0.625000 1.000000
vt 0.875000 0.750000
vn 1.0000 -0.0000 -0.0000
vn 0.0000 0.0000 1.0000
vn -1.0000 0.0000 0.0000
vn -0.0000 -0.0000 -1.0000
vn 0.0000 -1.0000 0.0000
vn 0.0000 1.0000 -0.0000
usemtl None
s off
f 10/15/7 11/16/7 9/17/7
f 12/18/8 15/19/8 11/16/8
f 16/20/9 13/21/9 15/19/9
f 14/22/10 9/23/10 13/21/10
f 15/19/11 9/24/11 11/25/11
f 12/26/12 14/22/12 16/20/12
f 10/15/7 12/18/7 11/16/7
f 12/18/8 16/20/8 15/19/8
f 16/20/9 14/22/9 13/21/9
f 14/22/10 10/27/10 9/23/10
f 15/19/11 13/21/11 9/24/11
f 12/26/12 10/28/12 14/22/12
o Cube.002_Cube.004
v 0.925436 0.360881 -0.261673
v 0.925436 0.536784 -0.261673
v 0.925436 0.360881 -0.085769
v 0.925436 0.536784 -0.085769
v 0.624837 0.360881 -0.261673
v 0.624837 0.536784 -0.261673
v 0.624837 0.360881 -0.085769
v 0.624837 0.536784 -0.085769
vt 0.625000 0.000000
vt 0.375000 0.250000
vt 0.375000 0.000000
vt 0.625000 0.250000
vt 0.375000 0.500000
vt 0.625000 0.500000
vt 0.375000 0.750000
vt 0.625000 0.750000
vt 0.375000 1.000000
vt 0.125000 0.750000
vt 0.125000 0.500000
vt 0.875000 0.500000
vt 0.625000 1.000000
vt 0.875000 0.750000
vn 1.0000 0.0000 -0.0000
vn 0.0000 0.0000 1.0000
vn -1.0000 0.0000 0.0000
vn -0.0000 -0.0000 -1.0000
vn 0.0000 -1.0000 0.0000
vn 0.0000 1.0000 -0.0000
usemtl None
s off
f 18/29/13 19/30/13 17/31/13
f 20/32/14 23/33/14 19/30/14
f 24/34/15 21/35/15 23/33/15
f 22/36/16 17/37/16 21/35/16
f 23/33/17 17/38/17 19/39/17
f 20/40/18 22/36/18 24/34/18
f 18/29/13 20/32/13 19/30/13
f 20/32/14 24/34/14 23/33/14
f 24/34/15 22/36/15 21/35/15
f 22/36/16 18/41/16 17/37/16
f 23/33/17 21/35/17 17/38/17
f 20/40/18 18/42/18 22/36/18
o Cube.003_Cube.005
v 0.816144 0.987931 -0.041962
v 0.816144 1.060824 0.000620
v 0.816144 0.690989 0.466349
v 0.816144 0.763882 0.508931
v -0.014946 0.987931 -0.041962
v -0.014946 1.060824 0.000621
v -0.014946 0.690989 0.466349
v -0.014946 0.763882 0.508932
vt 0.625000 0.000000
vt 0.375000 0.250000
vt 0.375000 0.000000
vt 0.625000 0.250000
vt 0.375000 0.500000
vt 0.625000 0.500000
vt 0.375000 0.750000
vt 0.625000 0.750000
vt 0.375000 1.000000
vt 0.125000 0.750000
vt 0.125000 0.500000
vt 0.875000 0.500000
vt 0.625000 1.000000
vt 0.875000 0.750000
vn 1.0000 0.0000 -0.0000
vn 0.0000 -0.5044 0.8635
vn -1.0000 0.0000 0.0000
vn -0.0000 0.5044 -0.8635
vn -0.0000 -0.8635 -0.5044
vn 0.0000 0.8635 0.5044
usemtl None
s off
f 26/43/19 27/44/19 25/45/19
f 28/46/20 31/47/20 27/44/20
f 32/48/21 29/49/21 31/47/21
f 30/50/22 25/51/22 29/49/22
f 31/47/23 25/52/23 27/53/23
f 28/54/24 30/50/24 32/48/24
f 26/43/19 28/46/19 27/44/19
f 28/46/20 32/48/20 31/47/20
f 32/48/21 30/50/21 29/49/21
f 30/50/22 26/55/22 25/51/22
f 31/47/23 29/49/23 25/52/23
f 28/54/24 26/56/24 30/50/24
o Cube.004_Cube.006
v 0.816144 1.066301 -0.003247
v 0.816144 0.995761 0.043129
v 0.816144 0.742901 -0.495148
v 0.816144 0.672361 -0.448772
v -0.014946 1.066301 -0.003247
v -0.014946 0.995761 0.043129
v -0.014946 0.742900 -0.495148
v -0.014946 0.672361 -0.448772
vt 0.625000 0.000000
vt 0.375000 0.250000
vt 0.375000 0.000000
vt 0.625000 0.250000
vt 0.375000 0.500000
vt 0.625000 0.500000
vt 0.375000 0.750000
vt 0.625000 0.750000
vt 0.375000 1.000000
vt 0.125000 0.750000
vt 0.125000 0.500000
vt 0.875000 0.500000
vt 0.625000 1.000000
vt 0.875000 0.750000
vn 1.0000 0.0000 -0.0000
vn 0.0000 -0.5494 -0.8356
vn -1.0000 -0.0000 0.0000
vn -0.0000 0.5494 0.8356
vn -0.0000 0.8356 -0.5494
vn 0.0000 -0.8356 0.5494
usemtl None
s off
f 34/57/25 35/58/25 33/59/25
f 36/60/26 39/61/26 35/58/26
f 40/62/27 37/63/27 39/61/27
f 38/64/28 33/65/28 37/63/28
f 39/61/29 33/66/29 35/67/29
f 36/68/30 38/64/30 40/62/30
f 34/57/25 36/60/25 35/58/25
f 36/60/26 40/62/26 39/61/26
f 40/62/27 38/64/27 37/63/27
f 38/64/28 34/69/28 33/65/28
f 39/61/29 37/63/29 33/66/29
f 36/68/30 34/70/30 38/64/30
o Plane_Plane.002
v 0.806069 0.988881 -0.011424
v 0.806069 0.740131 0.396376
v 0.806069 0.740379 -0.386436
vt 0.000000 0.000000
vt 1.000000 0.000000
vt 0.000000 1.000000
vn 1.0000 0.0000 -0.0000
usemtl None
s off
f 41/71/31 42/72/31 43/73/31
o Floor_Cube.001
v -2.208887 -0.015245 -1.760262
v -2.208887 -0.061436 -1.760262
v -2.208887 -0.015245 1.760262
v -2.208887 -0.061435 1.760262
v 2.182758 -0.015245 -1.760262
v 2.182758 -0.061436 -1.760262
v 2.182758 -0.015245 1.760262
v 2.182758 -0.061435 1.760262
vt 0.625000 0.000000
vt 0.375000 0.250000
vt 0.375000 0.000000
vt 0.625000 0.250000
vt 0.375000 0.500000
vt 0.625000 0.500000
vt 0.375000 0.750000
vt 0.625000 0.750000
vt 0.375000 1.000000
vt 0.125000 0.750000
vt 0.125000 0.500000
vt 0.875000 0.500000
vt 0.625000 1.000000
vt 0.875000 0.750000
vn -1.0000 0.0000 0.0000
vn 0.0000 0.0000 1.0000
vn 1.0000 0.0000 0.0000
vn 0.0000 0.0000 -1.0000
vn 0.0000 1.0000 -0.0000
vn 0.0000 -1.0000 0.0000
usemtl None
s off
f 45/74/32 46/75/32 44/76/32
f 47/77/33 50/78/33 46/75/33
f 51/79/34 48/80/34 50/78/34
f 49/81/35 44/82/35 48/80/35
f 50/78/36 44/83/36 46/84/36
f 47/85/37 49/81/37 51/79/37
f 45/74/32 47/77/32 46/75/32
f 47/77/33 51/79/33 50/78/33
f 51/79/34 49/81/34 48/80/34
f 49/81/35 45/86/35 44/82/35
f 50/78/36 48/80/36 44/83/36
f 47/85/37 45/87/37 49/81/37
o Bottom_Cube.002
v 0.805088 -0.019791 -0.417707
v 0.805088 0.755150 -0.417707
v 0.805088 -0.019790 0.416887
v 0.805088 0.755150 0.416887
v -0.029506 -0.019791 -0.417707
v -0.029506 0.755150 -0.417707
v -0.029506 -0.019790 0.416887
v -0.029506 0.755150 0.416887
v 0.724733 -0.019790 0.416887
v 0.724733 0.755150 0.416887
v 0.724733 -0.019791 -0.417707
v 0.724733 0.755150 -0.417707
v 0.805088 -0.019790 0.317608
v 0.805088 0.755150 0.317608
v -0.029506 -0.019790 0.317608
v -0.029506 0.755150 0.317608
v 0.724733 0.755150 0.317608
v 0.724733 -0.019790 0.317608
v 0.075333 0.755150 0.416887
v 0.075333 -0.019791 -0.417707
v 0.075333 -0.019790 0.416887
v 0.075333 0.755150 -0.417707
v 0.075333 0.755150 0.317608
v 0.075333 -0.019790 0.317608
v 0.805088 -0.019791 -0.320369
v -0.029506 0.755150 -0.320369
v 0.724733 0.755150 -0.320370
v 0.724733 -0.019791 -0.320369
v 0.805088 0.755150 -0.320370
v -0.029506 -0.019791 -0.320369
v 0.075333 0.755150 -0.320369
v 0.075333 -0.019791 -0.320369
v 0.724733 -0.026194 0.317608
v 0.075333 -0.026194 0.317608
v 0.724733 -0.026194 -0.320369
v 0.075333 -0.026194 -0.320369
v 0.594938 0.182484 0.416887
v 0.594938 0.645235 0.416887
v 0.132186 0.182484 0.416887
v 0.132186 0.645235 0.416887
v 0.594938 0.182484 0.317608
v 0.594938 0.645235 0.317608
v 0.132186 0.182484 0.317608
v 0.132186 0.645235 0.317608
v 0.805088 0.543351 -0.021079
v 0.805088 -0.001012 -0.021079
v 0.805088 0.543351 0.250314
v 0.805088 -0.001012 0.250314
v 0.724733 0.543351 -0.021079
v 0.724733 -0.001012 -0.021079
v 0.724733 -0.001012 0.250314
v 0.724733 0.543351 0.250314
v 0.805088 0.360881 -0.085769
v 0.805088 0.536784 -0.085769
v 0.805088 0.360881 -0.261673
v 0.805088 0.536784 -0.261673
v 0.724733 0.360881 -0.085769
v 0.724733 0.360881 -0.261673
v 0.724733 0.536784 -0.261673
v 0.724733 0.536784 -0.085769
vt 0.625000 0.220261
vt 0.375000 0.250000
vt 0.375000 0.220261
vt 0.625000 0.468596
vt 0.375000 0.500000
vt 0.375000 0.468596
vt 0.625000 0.720843
vt 0.375000 0.750000
vt 0.375000 0.720843
vt 0.625000 0.975930
vt 0.375000 1.000000
vt 0.375000 0.975930
vt 0.343596 0.750000
vt 0.343596 0.720843
vt 0.875000 0.720843
vt 0.850930 0.750000
vt 0.850930 0.720843
vt 0.656404 0.750000
vt 0.656404 0.720843
vt 0.149070 0.720843
vt 0.125000 0.750000
vt 0.125000 0.720843
vt 0.625000 0.781404
vt 0.375000 0.781404
vt 0.625000 0.250000
vt 0.375000 0.274070
vt 0.149070 0.500000
vt 0.125000 0.529739
vt 0.125000 0.500000
vt 0.850930 0.500000
vt 0.656404 0.529739
vt 0.656404 0.500000
vt 0.875000 0.500000
vt 0.850930 0.529739
vt 0.343596 0.529739
vt 0.343596 0.500000
vt 0.625000 0.500000
vt 0.375000 0.529739
vt 0.556672 0.200104
vt 0.381058 0.200104
vt 0.381058 0.118809
vt 0.375000 0.029157
vt 0.497807 0.099431
vt 0.556672 0.118809
vt 0.554554 0.099431
vt 0.625000 0.029157
vt 0.149070 0.529739
vt 0.625000 0.529739
vt 0.625000 0.750000
vt 0.149070 0.750000
vt 0.440255 0.451566
vt 0.589541 0.451566
vt 0.440255 0.312950
vt 0.625000 0.274070
vt 0.625000 0.000000
vt 0.375000 0.000000
vt 0.875000 0.529739
vt 0.656404 0.720843
vt 0.850930 0.529739
vt 0.656404 0.529739
vt 0.673434 0.529739
vt 0.673434 0.529739
vt 0.812050 0.529739
vt 0.812050 0.529739
vt 0.850930 0.720843
vt 0.850930 0.549896
vt 0.850930 0.549896
vt 0.850930 0.631191
vt 0.850930 0.650569
vt 0.850930 0.631191
vt 0.850930 0.650569
vt 0.375000 0.196568
vt 0.625000 0.101291
vt 0.375000 0.101291
vt 0.625000 0.553432
vt 0.375000 0.648709
vt 0.625000 0.648709
vt 0.375000 0.553432
vt 0.125000 0.648709
vt 0.875000 0.648709
vt 0.875000 0.553432
vt 0.375000 0.312420
vt 0.625000 0.401654
vt 0.625000 0.312420
vt 0.375000 0.937580
vt 0.625000 0.848346
vt 0.375000 0.848346
vt 0.187420 0.750000
vt 0.276654 0.500000
vt 0.187420 0.500000
vt 0.723346 0.500000
vt 0.812580 0.750000
vt 0.812581 0.500000
vt 0.375000 0.350091
vt 0.625000 0.416920
vt 0.625000 0.350091
vt 0.375000 0.899909
vt 0.625000 0.833080
vt 0.375000 0.833080
vt 0.225091 0.500000
vt 0.291920 0.750000
vt 0.291920 0.500000
vt 0.708080 0.500000
vt 0.774909 0.750000
vt 0.774909 0.500000
vt 0.625000 1.000000
vt 0.875000 0.750000
vt 0.497807 0.046739
vt 0.554554 0.046739
vt 0.589541 0.312950
vt 0.850930 0.703260
vt 0.850930 0.703261
vt 0.625000 0.196568
vt 0.125000 0.553432
vt 0.375000 0.401654
vt 0.625000 0.937580
vt 0.276654 0.750000
vt 0.723346 0.750000
vt 0.375000 0.416920
vt 0.625000 0.899909
vt 0.225091 0.750000
vt 0.708080 0.750000
vn 1.0000 -0.0000 0.0000
vn 0.0000 0.0000 1.0000
vn -1.0000 0.0000 0.0000
vn 0.0000 -0.0000 -1.0000
vn 0.0000 -1.0000 0.0000
vn 0.0000 1.0000 0.0000
usemtl (null)
s off
f 65/88/38 54/89/38 64/90/38
f 70/91/39 58/92/39 72/93/39
f 77/94/40 56/95/40 81/96/40
f 63/97/41 52/98/41 62/99/41
f 81/96/42 71/100/42 83/101/42
f 80/102/43 63/103/43 78/104/43
f 78/104/43 73/105/43 82/106/43
f 79/107/42 52/108/42 76/109/42
f 73/110/41 62/99/41 71/111/41
f 55/112/39 60/113/39 54/89/39
f 60/114/42 64/115/42 54/116/42
f 61/117/43 74/118/43 70/119/43
f 55/120/43 68/121/43 61/117/43
f 58/92/42 75/122/42 72/123/42
f 59/124/40 66/125/40 58/92/40
f 98/126/38 64/90/38 99/127/38
f 97/128/38 76/129/38 104/130/38
f 96/131/38 105/132/38 80/133/38
f 72/123/42 69/134/42 60/114/42
f 70/119/43 67/135/43 59/124/43
f 57/136/41 71/111/41 56/95/41
f 82/106/43 57/136/43 77/94/43
f 83/101/42 62/137/42 79/107/42
f 70/91/39 90/138/39 91/139/39
f 88/140/39 60/113/39 61/141/39
f 75/122/42 79/107/42 69/134/42
f 74/118/43 77/94/43 67/135/43
f 53/142/38 76/129/38 52/143/38
f 69/134/42 76/109/42 64/115/42
f 65/144/43 78/104/43 68/121/43
f 66/125/42 83/101/42 75/122/42
f 67/135/40 81/96/40 66/125/40
f 74/118/38 87/145/38 82/106/38
f 84/146/43 87/145/43 85/147/43
f 94/148/41 74/118/41 95/149/41
f 92/150/41 93/151/41 68/121/41
f 82/106/39 86/152/39 78/104/39
f 84/146/40 103/153/40 102/154/40
f 100/155/40 78/104/40 111/156/40
f 86/152/40 101/157/40 108/158/40
f 88/159/40 93/160/40 92/161/40
f 91/162/38 94/163/38 95/164/38
f 90/165/43 92/166/43 94/163/43
f 91/162/42 93/167/42 89/168/42
f 99/169/41 103/170/41 98/171/41
f 97/172/39 100/173/39 101/174/39
f 97/175/43 102/176/43 99/177/43
f 103/178/42 96/179/42 98/180/42
f 104/181/41 111/182/41 105/183/41
f 106/184/39 110/185/39 109/186/39
f 104/187/43 109/188/43 108/189/43
f 111/190/42 107/191/42 105/192/42
f 65/88/38 55/112/38 54/89/38
f 70/91/39 59/124/39 58/92/39
f 77/94/40 57/136/40 56/95/40
f 63/97/41 53/193/41 52/98/41
f 81/96/42 56/95/42 71/100/42
f 80/102/43 53/194/43 63/103/43
f 78/104/43 63/103/43 73/105/43
f 79/107/42 62/137/42 52/108/42
f 73/110/41 63/97/41 62/99/41
f 55/112/39 61/141/39 60/113/39
f 60/114/42 69/134/42 64/115/42
f 61/117/43 68/121/43 74/118/43
f 55/120/43 65/144/43 68/121/43
f 58/92/42 66/125/42 75/122/42
f 59/124/40 67/135/40 66/125/40
f 98/126/38 65/88/38 64/90/38
f 105/132/38 96/131/38 104/130/38
f 96/131/38 97/128/38 104/130/38
f 97/128/38 99/127/38 64/90/38
f 76/129/38 80/133/38 106/195/38
f 80/133/38 107/196/38 106/195/38
f 97/128/38 64/90/38 76/129/38
f 76/129/38 106/195/38 104/130/38
f 105/132/38 107/196/38 80/133/38
f 80/133/38 65/88/38 96/131/38
f 65/88/38 98/126/38 96/131/38
f 72/123/42 75/122/42 69/134/42
f 70/119/43 74/118/43 67/135/43
f 57/136/41 73/110/41 71/111/41
f 82/106/43 73/105/43 57/136/43
f 83/101/42 71/100/42 62/137/42
f 70/91/39 72/93/39 90/138/39
f 88/140/39 90/138/39 72/93/39
f 61/141/39 70/91/39 89/197/39
f 70/91/39 91/139/39 89/197/39
f 88/140/39 72/93/39 60/113/39
f 61/141/39 89/197/39 88/140/39
f 75/122/42 83/101/42 79/107/42
f 74/118/43 82/106/43 77/94/43
f 53/142/38 80/133/38 76/129/38
f 69/134/42 79/107/42 76/109/42
f 65/144/43 80/102/43 78/104/43
f 66/125/42 81/96/42 83/101/42
f 67/135/40 77/94/40 81/96/40
f 74/118/38 85/147/38 87/145/38
f 84/146/43 86/152/43 87/145/43
f 94/148/41 85/147/41 74/118/41
f 93/151/41 95/149/41 74/118/41
f 84/146/41 85/147/41 92/150/41
f 85/147/41 94/148/41 92/150/41
f 93/151/41 74/118/41 68/121/41
f 84/146/41 92/150/41 68/121/41
f 82/106/39 87/145/39 86/152/39
f 84/146/40 68/121/40 103/153/40
f 100/155/40 103/153/40 68/121/40
f 68/121/40 78/104/40 100/155/40
f 78/104/40 110/198/40 111/156/40
f 109/199/40 110/198/40 78/104/40
f 86/152/40 84/146/40 101/157/40
f 84/146/40 102/154/40 101/157/40
f 101/157/40 100/155/40 108/158/40
f 100/155/40 111/156/40 108/158/40
f 109/199/40 78/104/40 86/152/40
f 108/158/40 109/199/40 86/152/40
f 88/159/40 89/200/40 93/160/40
f 91/162/38 90/165/38 94/163/38
f 90/165/43 88/201/43 92/166/43
f 91/162/42 95/164/42 93/167/42
f 99/169/41 102/202/41 103/170/41
f 97/172/39 96/203/39 100/173/39
f 97/175/43 101/204/43 102/176/43
f 103/178/42 100/205/42 96/179/42
f 104/181/41 108/206/41 111/182/41
f 106/184/39 107/207/39 110/185/39
f 104/187/43 106/208/43 109/188/43
f 111/190/42 110/209/42 107/191/42
